<svg width="97" height="50" fill="none" xmlns="http://www.w3.org/2000/svg"><path d="m24.579 24.576.198-.042h16.518l6.207 6.207H30.744l-6.165-6.165ZM19.26 24.534H2.503l6.207 6.207h10.552v-6.207ZM53.27 6.705h2.574v7.998h4.422v2.167H53.27V6.705ZM64.939 17.088c-.863 0-1.62-.155-2.27-.465-.649-.32-1.153-.756-1.512-1.31-.349-.561-.523-1.206-.523-1.933 0-.727.174-1.367.523-1.92.36-.562.863-.999 1.513-1.309.65-.32 1.406-.48 2.269-.48.863 0 1.62.16 2.269.48.649.31 1.148.747 1.497 1.31.36.552.538 1.192.538 1.919 0 .727-.179 1.372-.538 1.934-.349.553-.848.989-1.497 1.309-.65.31-1.406.465-2.27.465Zm0-1.992c.514 0 .921-.15 1.221-.451.31-.31.466-.732.466-1.265 0-.534-.156-.95-.466-1.251-.3-.31-.707-.465-1.221-.465-.514 0-.926.155-1.237.465-.3.3-.45.718-.45 1.25 0 .534.15.956.45 1.266.311.3.723.45 1.237.45ZM74.051 20.215a7.8 7.8 0 0 1-1.41-.131 5.779 5.779 0 0 1-1.207-.35v-1.773c.765.33 1.638.494 2.617.494.708 0 1.217-.145 1.527-.436.32-.291.48-.717.48-1.28v-.422c-.281.243-.63.432-1.047.567a4.116 4.116 0 0 1-1.309.204c-.736 0-1.386-.155-1.948-.465a3.371 3.371 0 0 1-1.324-1.31c-.31-.561-.465-1.206-.465-1.933 0-.737.155-1.387.465-1.949a3.18 3.18 0 0 1 1.31-1.294c.56-.31 1.206-.466 1.933-.466.999 0 1.823.306 2.472.917V9.89h2.472v6.5c0 1.212-.372 2.152-1.12 2.821-.736.67-1.885 1.004-3.446 1.004Zm.29-5.105a1.89 1.89 0 0 0 1.063-.305c.31-.204.528-.475.654-.814v-1.222a1.638 1.638 0 0 0-.67-.8 1.866 1.866 0 0 0-1.046-.305c-.523 0-.945.155-1.265.465-.32.3-.48.713-.48 1.236 0 .533.16.96.48 1.28.32.31.742.465 1.265.465ZM83.572 17.088c-.863 0-1.62-.155-2.27-.465-.649-.32-1.153-.756-1.512-1.31-.349-.561-.523-1.206-.523-1.933 0-.727.174-1.367.523-1.92.36-.562.863-.999 1.513-1.309.65-.32 1.406-.48 2.269-.48.862 0 1.618.16 2.269.48.649.31 1.148.747 1.497 1.31.36.552.538 1.192.538 1.919 0 .727-.179 1.372-.538 1.934-.349.553-.848.989-1.497 1.309-.65.31-1.406.465-2.27.465Zm0-1.992c.513 0 .92-.15 1.221-.451.31-.31.465-.732.465-1.265 0-.534-.154-.95-.465-1.251-.3-.31-.708-.465-1.221-.465-.514 0-.927.155-1.237.465-.3.3-.45.718-.45 1.25 0 .534.15.956.45 1.266.31.3.723.45 1.237.45ZM53.27 20.612h2.574v10.165H53.27V20.612ZM57.148 23.797h2.471v.697c.65-.61 1.475-.916 2.473-.916.727 0 1.372.155 1.934.466.562.3.998.732 1.31 1.294.31.553.464 1.197.464 1.934 0 .727-.155 1.377-.465 1.949-.31.562-.747.999-1.31 1.309-.551.31-1.197.465-1.933.465-.466 0-.911-.073-1.338-.218a3.002 3.002 0 0 1-1.047-.567v3.752h-2.56V23.796Zm4.275 5.206c.524 0 .945-.155 1.265-.466.32-.31.48-.732.48-1.265 0-.533-.16-.95-.48-1.25-.32-.31-.741-.466-1.265-.466-.388 0-.737.102-1.047.306-.31.193-.533.46-.669.8v1.236c.136.339.359.61.67.814.31.194.658.29 1.046.29ZM69.616 30.995c-.562 0-1.15-.058-1.76-.174-.61-.107-1.096-.262-1.454-.466V28.48c.397.233.872.427 1.425.582a6.204 6.204 0 0 0 1.542.218c.339 0 .587-.024.742-.073.155-.048.232-.145.232-.29a.312.312 0 0 0-.16-.277c-.097-.077-.281-.155-.552-.232a19.37 19.37 0 0 0-.917-.277c-.591-.174-1.057-.354-1.396-.538-.34-.184-.591-.417-.756-.698-.165-.281-.247-.635-.247-1.062 0-.756.295-1.318.887-1.686.6-.379 1.42-.568 2.457-.568.504 0 1.033.054 1.586.16.562.107.984.248 1.265.422v1.847c-.291-.194-.678-.354-1.163-.48a5.238 5.238 0 0 0-1.339-.189c-.33 0-.586.034-.77.102-.184.058-.276.165-.276.32 0 .145.092.257.276.334.184.078.514.175.989.291.31.078.441.112.392.102.62.165 1.1.349 1.44.553.34.203.577.445.713.727.145.271.218.62.218 1.047 0 .669-.29 1.202-.873 1.6-.572.387-1.406.581-2.5.581ZM76.812 30.995c-.96 0-1.682-.267-2.167-.8-.475-.533-.713-1.236-.713-2.108v-4.29h2.56v3.999c0 .804.364 1.207 1.09 1.207.33 0 .63-.078.902-.233a1.81 1.81 0 0 0 .669-.683v-4.29h2.56v6.98H79.24v-.756c-.3.32-.664.562-1.091.727a3.68 3.68 0 0 1-1.338.247ZM83.023 23.797h2.37v.756c.291-.31.626-.548 1.004-.713.378-.174.78-.262 1.207-.262.524 0 .94.078 1.251.233.32.155.576.388.77.698.291-.29.645-.519 1.062-.683a3.414 3.414 0 0 1 1.265-.248c.921 0 1.576.238 1.964.713.388.465.582 1.14.582 2.021v4.465h-2.444v-4.101c0-.388-.073-.669-.218-.844-.145-.174-.388-.261-.727-.261-.436 0-.79.155-1.061.465.01.165.014.417.014.756v3.985H87.62v-4.203c0-.359-.064-.616-.19-.77-.125-.156-.349-.233-.668-.233-.495 0-.922.276-1.28.829v4.377h-2.458v-6.98Z" fill="#000"/><path d="m24.777 24.535-.198.042 6.165 6.164V47.5h-5.276l-6.207-6.207h5.276V24.534H19.26V19.26h5.276V2.5l6.207 6.207v10.552h-6.207v5.275h.24ZM41.295 24.534l6.207 6.207v-5.276l-6.207-6.206v5.275ZM53.634 35.549H57.4c1.067 0 1.895.252 2.487.756.6.504.902 1.25.902 2.24 0 .998-.296 1.745-.887 2.24-.592.494-1.426.74-2.502.74h-2.632v4.189h-1.134V35.549Zm3.68 5.017c.726 0 1.299-.146 1.715-.436.417-.3.625-.83.625-1.586 0-.765-.208-1.294-.625-1.585-.416-.3-.989-.45-1.716-.45h-2.545v4.057h2.545ZM62.24 34.967h1.12v10.747h-1.12V34.967ZM68.215 45.932c-.931 0-1.649-.252-2.153-.756-.495-.504-.741-1.178-.741-2.022v-4.42h1.12v4.479c0 1.221.634 1.832 1.904 1.832.534 0 .999-.116 1.397-.349.406-.233.77-.601 1.09-1.105v-4.858h1.12v6.98h-1.09v-1.046c-.63.843-1.513 1.265-2.647 1.265ZM76.414 45.932c-.456 0-.946-.068-1.47-.203-.523-.127-.93-.286-1.22-.48v-.946c.368.223.79.403 1.265.538.484.136.95.204 1.396.204.6 0 1.032-.082 1.294-.247.272-.175.407-.432.407-.77 0-.263-.058-.466-.174-.612-.117-.155-.31-.29-.582-.407-.271-.116-.693-.252-1.265-.407-.563-.155-1.013-.315-1.352-.48a2.02 2.02 0 0 1-.757-.654c-.175-.262-.261-.597-.261-1.004 0-.63.251-1.11.755-1.44.514-.339 1.193-.509 2.036-.509.456 0 .883.044 1.28.131.407.078.747.19 1.018.335v.945a3.801 3.801 0 0 0-1.018-.364 5.207 5.207 0 0 0-1.236-.145c-.562 0-.989.082-1.28.247-.29.165-.436.432-.436.8 0 .252.049.446.145.582.108.136.296.262.568.378.28.107.727.242 1.338.407.872.242 1.478.528 1.817.858.35.32.524.766.524 1.338 0 .591-.232 1.057-.698 1.396-.456.34-1.154.51-2.094.51Z" fill="#555"/></svg>