<svg width="96" height="75" fill="none" xmlns="http://www.w3.org/2000/svg"><path d="M44.056 73.525c-3.535-4.15-9.435-8.59-15.15-11.398-5.77-2.837-11.251-4.412-17.474-5.021-1.227-.12-2.244-.23-2.26-.246-.016 0 .015-12.81.08-28.431L9.355.028l1.133.11c6.956.69 14.72 3.32 20.595 6.983 5.063 3.157 10.291 8.031 13.625 12.702L45.547 21v26.978c0 14.837-.063 26.975-.14 26.972-.079-.002-.686-.644-1.35-1.424Zm5.763-52.707 1.62-2.165c2.068-2.763 6.228-6.926 8.98-8.985C67.772 4.165 75.749 1.055 84.907.12L86.068 0v56.882l-1.347.127c-12.752 1.187-23.807 6.448-32.454 15.443L49.82 75V20.818Zm7.9 52.34c5.006-4.695 11.63-8.426 18.286-10.299 3.483-.98 8.012-1.663 11.019-1.663 1.576 0 2.45-.34 2.943-1.15.372-.612.376-.874.376-23.92l.001-23.304.697.127c.383.08 1.471.38 2.417.682l1.72.547v29.084c0 15.997-.064 29.084-.143 29.084-.079 0-1.228-.246-2.556-.547-5.246-1.182-9.566-1.588-15.24-1.435-6.883.19-12.231 1.15-18.59 3.347l-2.416.835 1.487-1.388Zm-21.191.452c-2.64-.945-7.002-2.06-9.946-2.54-4.002-.65-6.764-.823-11.67-.714-4.874.103-7.823.444-11.845 1.357-1.125.254-2.275.516-2.556.571L0 72.395l.002-58.324 2.183-.634c1.201-.35 2.288-.675 2.416-.714.185-.08.233 4.671.233 23.278 0 25.426-.056 24.009 1.029 24.722.377.245 1.162.357 3.402.491 8.902.508 17.35 3.497 24.246 8.584 1.488 1.097 5.057 4.11 5.261 4.44.143.23.048.206-2.244-.619v-.009Z" fill="url(#a)"/><path d="M51.697 53.139c-.297-.675-.97-1.506-2.524-.823l-1.369.602L46.5 49.95c-.786-1.788-2.736-1.92-3.727-.975-.717.684-1.043 1.775-.571 2.848l4.627 10.593c-1.127-.853-3.28-.844-4.243.149l.025-.039c-1.023 1.054-.852 2.548.701 3.853l8.288 6.523 11.872-5.219.065-1.035a16.9 16.9 0 0 0-1.396-7.853l-.898-2.044a4.042 4.042 0 0 0-.153-.31 2.529 2.529 0 0 0-3.227-1.098l-.893.388-1.008-2.294a1.98 1.98 0 0 0-2.618-1.011l-1.646.713Z" fill="url(#b)"/><path d="m62.687 58.555-.898-2.044a4.522 4.522 0 0 0-.176-.357 3.13 3.13 0 0 0-3.99-1.359l-.346.15-.443-1.006-.326-.742a2.562 2.562 0 0 0-1.434-1.369 2.553 2.553 0 0 0-1.972.05l-1.15.498a2.148 2.148 0 0 0-.77-.689c-.63-.325-1.386-.298-2.25.082l-.821.361-1.064-2.42c-.434-.986-1.238-1.663-2.207-1.856-.91-.182-1.838.075-2.48.688a3.097 3.097 0 0 0-.707 3.52l4.032 9.23a4.749 4.749 0 0 0-1.055-.092c-.937.024-1.78.322-2.345.825a.613.613 0 0 0-.104.085c-.567.584-.847 1.291-.808 2.044.047.94.584 1.869 1.553 2.683a.66.66 0 0 0 .015.012l8.288 6.523a.595.595 0 0 0 .61.077l11.873-5.219a.597.597 0 0 0 .356-.51l.065-1.034a17.573 17.573 0 0 0-1.446-8.131Zm-4.841.654a.598.598 0 1 0 1.094-.48l-1.182-2.69.342-.148a1.92 1.92 0 0 1 2.465.836c.047.086.09.175.13.264l.898 2.045a16.369 16.369 0 0 1 1.347 7.575l-.042.671-11.211 4.93-7.999-6.296c-.693-.585-1.092-1.232-1.122-1.823-.02-.382.112-.738.39-1.06a.657.657 0 0 0 .058-.052c.715-.737 2.5-.788 3.43-.105l2.06 1.977a.597.597 0 0 0 .827-.861l-2.003-1.924-4.58-10.486c-.401-.913-.038-1.722.437-2.175.356-.34.9-.485 1.421-.381.59.117 1.068.53 1.346 1.164l3.47 7.893a.597.597 0 1 0 1.095-.481l-1.925-4.378.822-.361c.517-.227.926-.265 1.218-.114.207.107.381.319.518.63l2.046 4.655a.598.598 0 1 0 1.094-.481l-1.804-4.105 1.095-.474a1.365 1.365 0 0 1 1.063-.03c.347.133.62.394.77.734l2.432 5.532Z" fill="#fff"/><path d="M60.242 67.856a.597.597 0 0 1-.24-1.145l.59-.258a.597.597 0 1 1 .48 1.094l-.59.259a.59.59 0 0 1-.24.05ZM52.158 71.415a.598.598 0 0 1-.24-1.145l6.296-2.761a.598.598 0 0 1 .48 1.094l-6.296 2.762a.598.598 0 0 1-.24.05ZM43.275 46.678a.598.598 0 0 1-.584-.477l-.41-1.982a.598.598 0 1 1 1.17-.242l.41 1.982a.597.597 0 0 1-.586.719ZM37.044 46.587a.595.595 0 0 1-.314-.09l-.413-.256a.598.598 0 0 1 .629-1.016l.413.256a.598.598 0 0 1-.316 1.106ZM40.316 48.754a.595.595 0 0 1-.328-.098l-1.275-.838a.597.597 0 1 1 .657-1l1.274.84a.597.597 0 0 1-.328 1.096ZM37.708 52.725a.598.598 0 0 1-.12-1.183l1.982-.41a.598.598 0 1 1 .242 1.171l-1.982.41a.615.615 0 0 1-.122.012ZM40.338 57.462a.596.596 0 0 1-.498-.926l1.112-1.69a.597.597 0 1 1 .999.656l-1.113 1.691a.597.597 0 0 1-.5.27ZM48.913 50.263a.598.598 0 0 1-.12-1.184l1.321-.272a.598.598 0 1 1 .242 1.17l-1.322.273a.595.595 0 0 1-.12.013ZM52.63 49.495a.598.598 0 0 1-.12-1.183l.413-.085a.598.598 0 0 1 .242 1.17l-.413.086a.613.613 0 0 1-.122.012ZM46.837 47.302a.597.597 0 0 1-.499-.926l1.112-1.691a.598.598 0 0 1 .999.657l-1.112 1.691a.598.598 0 0 1-.5.27Z" fill="#fff"/><defs><radialGradient id="a" cx="0" cy="0" r="1" gradientUnits="userSpaceOnUse" gradientTransform="matrix(0 37.5002 -47.5887 0 47.589 37.5)"><stop stop-color="#02C39A"/><stop offset=".49" stop-color="#00A896"/><stop offset="1" stop-color="#028090"/></radialGradient><linearGradient id="b" x1="35.835" y1="-14.98" x2="35.835" y2="76.829" gradientUnits="userSpaceOnUse"><stop stop-color="#046C8E"/><stop offset="1" stop-color="#02C19A"/></linearGradient></defs></svg>