<svg width="33" height="20" viewBox="0 0 33 20" fill="none" xmlns="http://www.w3.org/2000/svg">
<path d="M11.2423 19.5372C11.5414 19.2411 11.7093 18.8398 11.7093 18.4213C11.7093 18.0029 11.5414 17.6015 11.2423 17.3055L5.45166 11.5789H31.4033C31.8268 11.5789 32.2329 11.4126 32.5323 11.1164C32.8318 10.8203 33 10.4187 33 9.9999C33 9.58111 32.8318 9.17948 32.5323 8.88336C32.2329 8.58724 31.8268 8.42088 31.4033 8.42088H5.45592L11.2423 2.69641C11.3907 2.54974 11.5083 2.37562 11.5886 2.18398C11.6688 1.99234 11.7102 1.78695 11.7102 1.57952C11.7102 1.16061 11.5419 0.75885 11.2423 0.462632C10.9428 0.166414 10.5366 0 10.113 0C9.68935 0 9.28309 0.166414 8.98355 0.462632L0.467842 8.88406C0.31953 9.03051 0.201874 9.20445 0.121597 9.39592C0.0413208 9.58738 0 9.79262 0 9.9999C0 10.2072 0.0413208 10.4124 0.121597 10.6039C0.201874 10.7953 0.31953 10.9693 0.467842 11.1157L8.98355 19.5372C9.13184 19.6839 9.3079 19.8003 9.50169 19.8797C9.69547 19.9591 9.90318 20 10.113 20C10.3227 20 10.5304 19.9591 10.7242 19.8797C10.918 19.8003 11.0941 19.6839 11.2423 19.5372Z" fill="url(#paint0_linear_516_97)"/>
<defs>
<linearGradient id="paint0_linear_516_97" x1="-8.28593e-08" y1="10" x2="33" y2="10" gradientUnits="userSpaceOnUse">
<stop stop-color="#05668D"/>
<stop offset="0.370311" stop-color="#028090"/>
<stop offset="0.697917" stop-color="#00A896"/>
<stop offset="1" stop-color="#02C39A"/>
</linearGradient>
</defs>
</svg>
