<svg width="33" height="20" fill="none" xmlns="http://www.w3.org/2000/svg"><path d="M11.242 19.537a1.57 1.57 0 0 0 0-2.232l-5.79-5.726h25.951c.424 0 .83-.166 1.13-.463a1.57 1.57 0 0 0 0-2.233 1.606 1.606 0 0 0-1.13-.462H5.456l5.786-5.725a1.578 1.578 0 0 0 .468-1.116c0-.42-.168-.821-.468-1.117a1.606 1.606 0 0 0-2.258 0L.468 8.884A1.576 1.576 0 0 0 0 10a1.562 1.562 0 0 0 .468 1.116l8.516 8.421a1.598 1.598 0 0 0 1.129.463 1.613 1.613 0 0 0 1.13-.463Z" fill="url(#a)"/><defs><linearGradient id="a" x1="0" y1="10" x2="33" y2="10" gradientUnits="userSpaceOnUse"><stop stop-color="#05668D"/><stop offset=".37" stop-color="#028090"/><stop offset=".698" stop-color="#00A896"/><stop offset="1" stop-color="#02C39A"/></linearGradient></defs></svg>