<svg width="33" height="20" fill="none" xmlns="http://www.w3.org/2000/svg"><path d="M21.758 19.537a1.57 1.57 0 0 1 0-2.232l5.79-5.726H1.597c-.424 0-.83-.166-1.13-.463a1.57 1.57 0 0 1 0-2.233c.3-.296.706-.462 1.13-.462h25.947l-5.786-5.725a1.578 1.578 0 0 1-.468-1.116c0-.42.168-.821.468-1.117a1.606 1.606 0 0 1 2.258 0l8.516 8.421A1.576 1.576 0 0 1 33 10a1.561 1.561 0 0 1-.468 1.116l-8.516 8.421a1.597 1.597 0 0 1-1.129.463 1.613 1.613 0 0 1-1.13-.463Z" fill="url(#a)"/><defs><linearGradient id="a" x1="33" y1="10" x2="0" y2="10" gradientUnits="userSpaceOnUse"><stop stop-color="#05668D"/><stop offset=".37" stop-color="#028090"/><stop offset=".698" stop-color="#00A896"/><stop offset="1" stop-color="#02C39A"/></linearGradient></defs></svg>