<svg width="280" height="221" fill="none" xmlns="http://www.w3.org/2000/svg"><path d="M129.249 215.701c-10.371-12.176-27.682-25.2-44.447-33.439-16.928-8.321-33.008-12.943-51.264-14.73-3.599-.349-6.583-.674-6.63-.721-.048 0 .045-37.581.232-83.409l.307-83.32 3.323.325c20.41 2.025 43.187 9.736 60.422 20.484 14.853 9.26 30.191 23.562 39.97 37.265l2.461 3.448v79.146c0 43.529-.187 79.137-.41 79.13-.233-.007-2.014-1.889-3.964-4.179Zm16.906-75.151V61.073l4.753-6.35c6.067-8.106 18.272-20.32 26.343-26.358 21.573-16.147 44.975-25.27 71.841-28.016L252.5 0V166.876l-3.953.373c-37.41 3.481-69.842 18.915-95.209 45.306l-7.183 7.474V140.55Zm23.178 74.076c14.683-13.775 34.12-24.721 53.645-30.214 10.218-2.874 23.504-4.88 32.325-4.88 4.624 0 7.189-1 8.636-3.376 1.089-1.792 1.101-2.562 1.103-70.172l.002-68.368 2.045.373c1.124.232 4.315 1.116 7.09 2l5.044 1.606v85.324c0 46.929-.186 85.324-.416 85.324-.233 0-3.604-.721-7.499-1.605-15.391-3.467-28.065-4.659-44.711-4.21-20.191.559-35.883 3.374-54.536 9.82l-7.09 2.45 4.362-4.072Zm-62.171 1.326c-7.747-2.773-20.54-6.043-29.177-7.453-11.743-1.908-19.845-2.415-34.238-2.094-14.3.303-22.95 1.303-34.75 3.981-3.3.745-6.674 1.513-7.498 1.676L0 212.388l.002-85.553.003-85.554 6.406-1.861a749.852 749.852 0 0 0 7.087-2.095c.542-.232.682 13.706.682 68.292 0 74.592-.163 70.434 3.02 72.526 1.107.721 3.408 1.047 9.98 1.443 26.118 1.489 50.901 10.259 71.133 25.181 4.363 3.218 14.834 12.056 15.434 13.026.419.675.139.605-6.584-1.815l-.001-.026Z" fill="url(#a)"/><defs><radialGradient id="a" cx="0" cy="0" r="1" gradientUnits="userSpaceOnUse" gradientTransform="matrix(0 110.015 -139.612 0 139.611 110.014)"><stop stop-color="#02C39A"/><stop offset=".49" stop-color="#00A896"/><stop offset="1" stop-color="#028090"/></radialGradient></defs></svg>