<svg width="118" height="75" viewBox="0 0 118 75" fill="none" xmlns="http://www.w3.org/2000/svg">
<path d="M54.8028 56.5812C52.0899 53.3873 47.5616 49.9709 43.1761 47.8097C38.748 45.627 34.5417 44.4146 29.7662 43.9458C28.8247 43.8543 28.0441 43.769 28.0316 43.7567C28.0193 43.7567 28.0436 33.8987 28.0925 21.8774L28.1728 0.0213522L29.0421 0.106814C34.3808 0.63784 40.3392 2.66059 44.8477 5.4799C48.733 7.90915 52.7452 11.6605 55.3033 15.2549L55.947 16.1595V36.9206C55.947 48.3388 55.8981 57.6792 55.8398 57.6774C55.7788 57.6756 55.3129 57.1819 54.8028 56.5812ZM59.2252 16.0203L60.4685 14.3547C62.0556 12.2281 65.2483 9.0243 67.3595 7.4404C73.0027 3.20504 79.1244 0.81178 86.1521 0.0915472L87.0436 0V43.7738L86.0096 43.8716C76.2236 44.7847 67.7399 48.8332 61.1042 55.7559L59.2252 57.7165V16.0203ZM65.2883 56.2992C69.1291 52.6858 74.2136 49.8146 79.3211 48.3737C81.994 47.6198 85.4694 47.0936 87.7768 47.0936C88.9864 47.0936 89.6574 46.8313 90.0359 46.208C90.3208 45.738 90.3239 45.536 90.3244 27.801L90.325 9.86722L90.8599 9.96487C91.1539 10.0259 91.9886 10.2579 92.7145 10.4898L94.034 10.911V33.2925C94.034 45.6026 93.9853 55.6741 93.9252 55.6741C93.8642 55.6741 92.9824 55.485 91.9635 55.2531C87.9375 54.3437 84.6221 54.031 80.2678 54.1488C74.9861 54.2954 70.8812 55.0338 66.0019 56.7247L64.1472 57.3673L65.2883 56.2992ZM49.0252 56.647C46.9987 55.9196 43.6522 55.0619 41.3929 54.692C38.3211 54.1915 36.2017 54.0585 32.4367 54.1427C28.696 54.2222 26.4333 54.4845 23.3465 55.187C22.4834 55.3824 21.6007 55.5839 21.385 55.6266L20.993 55.7121L20.9944 10.8286L22.67 10.3403C23.5915 10.0717 24.4259 9.82144 24.524 9.79093C24.6658 9.72989 24.7024 13.386 24.7024 27.7047C24.7024 47.2712 24.6597 46.1805 25.4921 46.7292C25.7819 46.9184 26.3839 47.0039 28.103 47.1077C34.9351 47.4983 41.418 49.7988 46.7104 53.7131C47.8517 54.5572 50.5908 56.8755 50.7477 57.1299C50.8573 57.307 50.7841 57.2886 49.0255 56.6538L49.0252 56.647Z" fill="url(#paint0_radial_505_661)"/>
<path d="M5.55489 72.1778C4.50384 72.1778 3.55593 71.9514 2.71116 71.4981C1.86637 71.0351 1.20332 70.3998 0.721978 69.5922C0.240662 68.7745 0 67.8635 0 66.8589C0 65.8539 0.240662 64.9479 0.721978 64.14C1.20332 63.3226 1.86637 62.687 2.71116 62.234C3.55593 61.771 4.50384 61.5397 5.55489 61.5397C6.60597 61.5397 7.55388 61.771 8.39865 62.234C9.24344 62.687 9.90648 63.3176 10.3878 64.1253C10.8691 64.933 11.1098 65.8442 11.1098 66.8589C11.1098 67.8732 10.8691 68.7845 10.3878 69.5922C9.90648 70.3998 9.24344 71.0351 8.39865 71.4981C7.55388 71.9514 6.60597 72.1778 5.55489 72.1778ZM5.55489 70.4935C6.24252 70.4935 6.86136 70.3408 7.41145 70.0355C7.96153 69.7202 8.39375 69.2868 8.70808 68.7352C9.02242 68.1738 9.17959 67.5482 9.17959 66.8589C9.17959 66.1692 9.02242 65.5486 8.70808 64.997C8.39375 64.4356 7.96153 64.0023 7.41145 63.6969C6.86136 63.3816 6.24252 63.224 5.55489 63.224C4.86728 63.224 4.24845 63.3816 3.69836 63.6969C3.14827 64.0023 2.71605 64.4356 2.40173 64.997C2.08738 65.5486 1.93022 66.1692 1.93022 66.8589C1.93022 67.5482 2.08738 68.1738 2.40173 68.7352C2.71605 69.2868 3.14827 69.7202 3.69836 70.0355C4.24845 70.3408 4.86728 70.4935 5.55489 70.4935Z" fill="url(#paint1_linear_505_661)"/>
<path d="M17.4279 64.0513C18.42 64.0513 19.2157 64.342 19.8149 64.9233C20.4141 65.5043 20.7137 66.3662 20.7137 67.5089V72.0301H18.8719V67.7452C18.8719 67.0559 18.7098 66.5386 18.3856 66.1939C18.0615 65.8392 17.5998 65.6619 17.0006 65.6619C16.3228 65.6619 15.7875 65.8689 15.3945 66.2826C15.0016 66.6863 14.8052 67.2725 14.8052 68.0408V72.0301H12.9634V64.14H14.7168V65.1596C15.0213 64.7952 15.4044 64.5193 15.866 64.3323C16.3277 64.145 16.8484 64.0513 17.4279 64.0513Z" fill="url(#paint2_linear_505_661)"/>
<path d="M25.6433 72.1337C24.8282 72.1337 24.1897 71.912 23.7279 71.4687C23.2761 71.0155 23.0501 70.3801 23.0501 69.5628V61.0667H24.892V69.4298C24.892 70.2178 25.2603 70.6118 25.997 70.6118C26.2426 70.6118 26.4636 70.5625 26.6601 70.4641L26.7485 71.9414C26.4048 72.0694 26.0365 72.1337 25.6433 72.1337Z" fill="url(#paint3_linear_505_661)"/>
<path d="M27.9999 64.14H29.8418V72.0301H27.9999V64.14ZM28.9283 62.84C28.5943 62.84 28.3144 62.7364 28.0884 62.5297C27.8626 62.313 27.7496 62.047 27.7496 61.7317C27.7496 61.4164 27.8626 61.1554 28.0884 60.9487C28.3144 60.7318 28.5943 60.6234 28.9283 60.6234C29.2623 60.6234 29.5422 60.727 29.7683 60.9337C29.994 61.1307 30.107 61.382 30.107 61.6874C30.107 62.0124 29.994 62.2883 29.7683 62.5147C29.5519 62.7314 29.272 62.84 28.9283 62.84Z" fill="url(#paint4_linear_505_661)"/>
<path d="M36.7238 64.0513C37.7158 64.0513 38.5115 64.342 39.1108 64.9233C39.7098 65.5043 40.0096 66.3662 40.0096 67.5089V72.0301H38.1678V67.7452C38.1678 67.0559 38.0056 66.5386 37.6815 66.1939C37.3574 65.8392 36.8957 65.6619 36.2964 65.6619C35.6186 65.6619 35.0834 65.8689 34.6903 66.2826C34.2974 66.6863 34.1009 67.2725 34.1009 68.0408V72.0301H32.2591V64.14H34.0125V65.1596C34.3172 64.7952 34.7002 64.5193 35.1619 64.3323C35.6236 64.145 36.1442 64.0513 36.7238 64.0513Z" fill="url(#paint5_linear_505_661)"/>
<path d="M46.1606 70.5674C47.0152 70.5674 47.7272 70.2818 48.2969 69.7105L49.2695 70.8481C48.9258 71.2717 48.4837 71.5918 47.9433 71.8084C47.4031 72.0251 46.7941 72.1337 46.1164 72.1337C45.2518 72.1337 44.4906 71.9611 43.8324 71.6164C43.1743 71.2718 42.6634 70.7938 42.3001 70.1831C41.9464 69.5628 41.7696 68.8632 41.7696 68.0852C41.7696 67.3169 41.9414 66.6272 42.2854 66.0166C42.6391 65.3959 43.1204 64.9133 43.7294 64.5686C44.348 64.2239 45.0457 64.0513 45.8215 64.0513C46.5584 64.0513 47.2263 64.214 47.8256 64.539C48.4345 64.8543 48.9158 65.3123 49.2695 65.9132C49.6232 66.5042 49.8 67.1986 49.8 67.9965L43.7736 69.1785C43.9601 69.6315 44.2599 69.9764 44.6724 70.2128C45.0849 70.4491 45.5809 70.5674 46.1606 70.5674ZM45.8215 65.5289C45.1438 65.5289 44.5937 65.7506 44.1715 66.1939C43.7587 66.6372 43.5525 67.2332 43.5525 67.9816V67.9965L48.0024 67.1395C47.8747 66.6569 47.6142 66.2679 47.2213 65.9722C46.8383 65.6766 46.3717 65.5289 45.8215 65.5289Z" fill="url(#paint6_linear_505_661)"/>
<path d="M51.7462 61.6874H53.6618V70.4048H59.0547V72.0301H51.7462V61.6874Z" fill="url(#paint7_linear_505_661)"/>
<path d="M64.0607 70.5674C64.9153 70.5674 65.6273 70.2818 66.197 69.7105L67.1696 70.8481C66.8259 71.2717 66.3838 71.5918 65.8434 71.8084C65.3032 72.0251 64.6942 72.1337 64.0164 72.1337C63.1519 72.1337 62.3907 71.9611 61.7325 71.6164C61.0744 71.2718 60.5635 70.7938 60.2002 70.1831C59.8465 69.5628 59.6697 68.8632 59.6697 68.0852C59.6697 67.3169 59.8415 66.6272 60.1855 66.0166C60.5392 65.3959 61.0205 64.9133 61.6295 64.5686C62.2484 64.2239 62.9458 64.0513 63.7216 64.0513C64.4585 64.0513 65.1264 64.214 65.7256 64.539C66.3346 64.8543 66.8159 65.3123 67.1696 65.9132C67.5233 66.5042 67.7001 67.1986 67.7001 67.9965L61.6737 69.1785C61.8602 69.6315 62.16 69.9764 62.5725 70.2128C62.985 70.4491 63.481 70.5674 64.0607 70.5674ZM63.7216 65.5289C63.0439 65.5289 62.4937 65.7506 62.0715 66.1939C61.6588 66.6372 61.4526 67.2332 61.4526 67.9816V67.9965L65.9025 67.1395C65.7748 66.6569 65.5143 66.2679 65.1214 65.9722C64.7384 65.6766 64.2718 65.5289 63.7216 65.5289Z" fill="url(#paint8_linear_505_661)"/>
<path d="M77.1609 64.14V72.0301H75.4075V71.0107C75.103 71.3851 74.7247 71.6657 74.273 71.8528C73.8309 72.0401 73.3399 72.1337 72.7995 72.1337C72.0333 72.1337 71.3458 71.9661 70.7366 71.6311C70.1376 71.2964 69.6659 70.8235 69.3222 70.2128C68.9881 69.6021 68.8213 68.8928 68.8213 68.0852C68.8213 67.2775 68.9881 66.5732 69.3222 65.9722C69.6659 65.3616 70.1376 64.8886 70.7366 64.5539C71.3458 64.2189 72.0333 64.0513 72.7995 64.0513C73.3103 64.0513 73.777 64.14 74.1992 64.3173C74.6316 64.4946 75.0049 64.7556 75.3191 65.1006V64.14H77.1609ZM73.0059 70.5525C73.6836 70.5525 74.2434 70.3261 74.6855 69.8728C75.1276 69.4198 75.3486 68.8238 75.3486 68.0852C75.3486 67.3462 75.1276 66.7505 74.6855 66.2972C74.2434 65.8442 73.6836 65.6176 73.0059 65.6176C72.3281 65.6176 71.768 65.8442 71.3262 66.2972C70.8938 66.7505 70.6777 67.3462 70.6777 68.0852C70.6777 68.8238 70.8938 69.4198 71.3262 69.8728C71.768 70.3261 72.3281 70.5525 73.0059 70.5525Z" fill="url(#paint9_linear_505_661)"/>
<path d="M81.324 65.2926C81.8545 64.4653 82.7879 64.0513 84.1238 64.0513V65.8096C83.9666 65.7802 83.824 65.7653 83.6964 65.7653C82.9794 65.7653 82.4193 65.9772 82.0167 66.4006C81.6139 66.8145 81.4125 67.4152 81.4125 68.2032V72.0301H79.5706V64.14H81.324V65.2926Z" fill="url(#paint10_linear_505_661)"/>
<path d="M90.1507 64.0513C91.1427 64.0513 91.9384 64.342 92.5377 64.9233C93.1367 65.5043 93.4365 66.3662 93.4365 67.5089V72.0301H91.5947V67.7452C91.5947 67.0559 91.4325 66.5386 91.1084 66.1939C90.7843 65.8392 90.3226 65.6619 89.7233 65.6619C89.0455 65.6619 88.5103 65.8689 88.1172 66.2826C87.7243 66.6863 87.5278 67.2725 87.5278 68.0408V72.0301H85.686V64.14H87.4394V65.1596C87.7441 64.7952 88.1271 64.5193 88.5888 64.3323C89.0505 64.145 89.5711 64.0513 90.1507 64.0513Z" fill="url(#paint11_linear_505_661)"/>
<path d="M95.773 64.14H97.6146V72.0301H95.773V64.14ZM96.7011 62.84C96.3671 62.84 96.0872 62.7364 95.8614 62.5297C95.6354 62.313 95.5224 62.047 95.5224 61.7317C95.5224 61.4164 95.6354 61.1554 95.8614 60.9487C96.0872 60.7318 96.3671 60.6234 96.7011 60.6234C97.0352 60.6234 97.3151 60.727 97.5411 60.9337C97.7671 61.1307 97.8798 61.382 97.8798 61.6874C97.8798 62.0124 97.7671 62.2883 97.5411 62.5147C97.325 62.7314 97.0448 62.84 96.7011 62.84Z" fill="url(#paint12_linear_505_661)"/>
<path d="M104.497 64.0513C105.489 64.0513 106.284 64.342 106.884 64.9233C107.483 65.5043 107.782 66.3662 107.782 67.5089V72.0301H105.941V67.7452C105.941 67.0559 105.778 66.5386 105.454 66.1939C105.13 65.8392 104.669 65.6619 104.069 65.6619C103.391 65.6619 102.856 65.8689 102.463 66.2826C102.07 66.6863 101.874 67.2725 101.874 68.0408V72.0301H100.032V64.14H101.786V65.1596C102.09 64.7952 102.473 64.5193 102.935 64.3323C103.396 64.145 103.917 64.0513 104.497 64.0513Z" fill="url(#paint13_linear_505_661)"/>
<path d="M118 64.14V70.8334C118 73.6111 116.586 75 113.757 75C113 75 112.283 74.9016 111.605 74.7044C110.927 74.5173 110.368 74.2417 109.926 73.877L110.751 72.4881C111.095 72.7738 111.527 73.0004 112.047 73.1677C112.578 73.3451 113.113 73.4337 113.653 73.4337C114.518 73.4337 115.151 73.2367 115.554 72.8427C115.957 72.4487 116.158 71.848 116.158 71.0401V70.6265C115.844 70.9711 115.461 71.2324 115.009 71.4095C114.557 71.5868 114.061 71.6754 113.521 71.6754C112.774 71.6754 112.097 71.5181 111.488 71.2028C110.888 70.8777 110.412 70.4245 110.058 69.8435C109.715 69.2622 109.542 68.5972 109.542 67.8488C109.542 67.1002 109.715 66.4402 110.058 65.8689C110.412 65.2876 110.888 64.8396 111.488 64.5243C112.097 64.209 112.774 64.0513 113.521 64.0513C114.091 64.0513 114.606 64.145 115.068 64.3323C115.54 64.5193 115.932 64.805 116.247 65.1892V64.14H118ZM113.801 70.1094C114.498 70.1094 115.068 69.9025 115.51 69.4888C115.962 69.0652 116.188 68.5185 116.188 67.8488C116.188 67.1889 115.962 66.6519 115.51 66.2382C115.068 65.8246 114.498 65.6176 113.801 65.6176C113.093 65.6176 112.514 65.8246 112.062 66.2382C111.62 66.6519 111.399 67.1889 111.399 67.8488C111.399 68.5185 111.62 69.0652 112.062 69.4888C112.514 69.9025 113.093 70.1094 113.801 70.1094Z" fill="url(#paint14_linear_505_661)"/>
<path d="M5.55489 72.1778C4.50384 72.1778 3.55593 71.9514 2.71116 71.4981C1.86637 71.0351 1.20332 70.3998 0.721978 69.5922C0.240662 68.7745 0 67.8635 0 66.8589C0 65.8539 0.240662 64.9479 0.721978 64.14C1.20332 63.3226 1.86637 62.687 2.71116 62.234C3.55593 61.771 4.50384 61.5397 5.55489 61.5397C6.60597 61.5397 7.55388 61.771 8.39865 62.234C9.24344 62.687 9.90648 63.3176 10.3878 64.1253C10.8691 64.933 11.1098 65.8442 11.1098 66.8589C11.1098 67.8732 10.8691 68.7845 10.3878 69.5922C9.90648 70.3998 9.24344 71.0351 8.39865 71.4981C7.55388 71.9514 6.60597 72.1778 5.55489 72.1778ZM5.55489 70.4935C6.24252 70.4935 6.86136 70.3408 7.41145 70.0355C7.96153 69.7202 8.39375 69.2868 8.70808 68.7352C9.02242 68.1738 9.17959 67.5482 9.17959 66.8589C9.17959 66.1692 9.02242 65.5486 8.70808 64.997C8.39375 64.4356 7.96153 64.0023 7.41145 63.6969C6.86136 63.3816 6.24252 63.224 5.55489 63.224C4.86728 63.224 4.24845 63.3816 3.69836 63.6969C3.14827 64.0023 2.71605 64.4356 2.40173 64.997C2.08738 65.5486 1.93022 66.1692 1.93022 66.8589C1.93022 67.5482 2.08738 68.1738 2.40173 68.7352C2.71605 69.2868 3.14827 69.7202 3.69836 70.0355C4.24845 70.3408 4.86728 70.4935 5.55489 70.4935Z" fill="url(#paint15_linear_505_661)"/>
<path d="M17.4279 64.0513C18.42 64.0513 19.2157 64.342 19.8149 64.9233C20.4141 65.5043 20.7137 66.3662 20.7137 67.5089V72.0301H18.8719V67.7452C18.8719 67.0559 18.7098 66.5386 18.3856 66.1939C18.0615 65.8392 17.5998 65.6619 17.0006 65.6619C16.3228 65.6619 15.7875 65.8689 15.3945 66.2826C15.0016 66.6863 14.8052 67.2725 14.8052 68.0408V72.0301H12.9634V64.14H14.7168V65.1596C15.0213 64.7952 15.4044 64.5193 15.866 64.3323C16.3277 64.145 16.8484 64.0513 17.4279 64.0513Z" fill="url(#paint16_linear_505_661)"/>
<path d="M25.6433 72.1337C24.8282 72.1337 24.1897 71.912 23.7279 71.4687C23.2761 71.0155 23.0501 70.3801 23.0501 69.5628V61.0667H24.892V69.4298C24.892 70.2178 25.2603 70.6118 25.997 70.6118C26.2426 70.6118 26.4636 70.5625 26.6601 70.4641L26.7485 71.9414C26.4048 72.0694 26.0365 72.1337 25.6433 72.1337Z" fill="url(#paint17_linear_505_661)"/>
<path d="M27.9999 64.14H29.8418V72.0301H27.9999V64.14ZM28.9283 62.84C28.5943 62.84 28.3144 62.7364 28.0884 62.5297C27.8626 62.313 27.7496 62.047 27.7496 61.7317C27.7496 61.4164 27.8626 61.1554 28.0884 60.9487C28.3144 60.7318 28.5943 60.6234 28.9283 60.6234C29.2623 60.6234 29.5422 60.727 29.7683 60.9337C29.994 61.1307 30.107 61.382 30.107 61.6874C30.107 62.0124 29.994 62.2883 29.7683 62.5147C29.5519 62.7314 29.272 62.84 28.9283 62.84Z" fill="url(#paint18_linear_505_661)"/>
<path d="M36.7238 64.0513C37.7158 64.0513 38.5115 64.342 39.1108 64.9233C39.7098 65.5043 40.0096 66.3662 40.0096 67.5089V72.0301H38.1678V67.7452C38.1678 67.0559 38.0056 66.5386 37.6815 66.1939C37.3574 65.8392 36.8957 65.6619 36.2964 65.6619C35.6186 65.6619 35.0834 65.8689 34.6903 66.2826C34.2974 66.6863 34.1009 67.2725 34.1009 68.0408V72.0301H32.2591V64.14H34.0125V65.1596C34.3172 64.7952 34.7002 64.5193 35.1619 64.3323C35.6236 64.145 36.1442 64.0513 36.7238 64.0513Z" fill="url(#paint19_linear_505_661)"/>
<path d="M46.1606 70.5674C47.0152 70.5674 47.7272 70.2818 48.2969 69.7105L49.2695 70.8481C48.9258 71.2717 48.4837 71.5918 47.9433 71.8084C47.4031 72.0251 46.7941 72.1337 46.1164 72.1337C45.2518 72.1337 44.4906 71.9611 43.8324 71.6164C43.1743 71.2718 42.6634 70.7938 42.3001 70.1831C41.9464 69.5628 41.7696 68.8632 41.7696 68.0852C41.7696 67.3169 41.9414 66.6272 42.2854 66.0166C42.6391 65.3959 43.1204 64.9133 43.7294 64.5686C44.348 64.2239 45.0457 64.0513 45.8215 64.0513C46.5584 64.0513 47.2263 64.214 47.8256 64.539C48.4345 64.8543 48.9158 65.3123 49.2695 65.9132C49.6232 66.5042 49.8 67.1986 49.8 67.9965L43.7736 69.1785C43.9601 69.6315 44.2599 69.9764 44.6724 70.2128C45.0849 70.4491 45.5809 70.5674 46.1606 70.5674ZM45.8215 65.5289C45.1438 65.5289 44.5937 65.7506 44.1715 66.1939C43.7587 66.6372 43.5525 67.2332 43.5525 67.9816V67.9965L48.0024 67.1395C47.8747 66.6569 47.6142 66.2679 47.2213 65.9722C46.8383 65.6766 46.3717 65.5289 45.8215 65.5289Z" fill="url(#paint20_linear_505_661)"/>
<path d="M51.7462 61.6874H53.6618V70.4048H59.0547V72.0301H51.7462V61.6874Z" fill="url(#paint21_linear_505_661)"/>
<path d="M64.0607 70.5674C64.9153 70.5674 65.6273 70.2818 66.197 69.7105L67.1696 70.8481C66.8259 71.2717 66.3838 71.5918 65.8434 71.8084C65.3032 72.0251 64.6942 72.1337 64.0164 72.1337C63.1519 72.1337 62.3907 71.9611 61.7325 71.6164C61.0744 71.2718 60.5635 70.7938 60.2002 70.1831C59.8465 69.5628 59.6697 68.8632 59.6697 68.0852C59.6697 67.3169 59.8415 66.6272 60.1855 66.0166C60.5392 65.3959 61.0205 64.9133 61.6295 64.5686C62.2484 64.2239 62.9458 64.0513 63.7216 64.0513C64.4585 64.0513 65.1264 64.214 65.7256 64.539C66.3346 64.8543 66.8159 65.3123 67.1696 65.9132C67.5233 66.5042 67.7001 67.1986 67.7001 67.9965L61.6737 69.1785C61.8602 69.6315 62.16 69.9764 62.5725 70.2128C62.985 70.4491 63.481 70.5674 64.0607 70.5674ZM63.7216 65.5289C63.0439 65.5289 62.4937 65.7506 62.0715 66.1939C61.6588 66.6372 61.4526 67.2332 61.4526 67.9816V67.9965L65.9025 67.1395C65.7748 66.6569 65.5143 66.2679 65.1214 65.9722C64.7384 65.6766 64.2718 65.5289 63.7216 65.5289Z" fill="url(#paint22_linear_505_661)"/>
<path d="M77.1609 64.14V72.0301H75.4075V71.0107C75.103 71.3851 74.7247 71.6657 74.273 71.8528C73.8309 72.0401 73.3399 72.1337 72.7995 72.1337C72.0333 72.1337 71.3458 71.9661 70.7366 71.6311C70.1376 71.2964 69.6659 70.8235 69.3222 70.2128C68.9881 69.6021 68.8213 68.8928 68.8213 68.0852C68.8213 67.2775 68.9881 66.5732 69.3222 65.9722C69.6659 65.3616 70.1376 64.8886 70.7366 64.5539C71.3458 64.2189 72.0333 64.0513 72.7995 64.0513C73.3103 64.0513 73.777 64.14 74.1992 64.3173C74.6316 64.4946 75.0049 64.7556 75.3191 65.1006V64.14H77.1609ZM73.0059 70.5525C73.6836 70.5525 74.2434 70.3261 74.6855 69.8728C75.1276 69.4198 75.3486 68.8238 75.3486 68.0852C75.3486 67.3462 75.1276 66.7505 74.6855 66.2972C74.2434 65.8442 73.6836 65.6176 73.0059 65.6176C72.3281 65.6176 71.768 65.8442 71.3262 66.2972C70.8938 66.7505 70.6777 67.3462 70.6777 68.0852C70.6777 68.8238 70.8938 69.4198 71.3262 69.8728C71.768 70.3261 72.3281 70.5525 73.0059 70.5525Z" fill="url(#paint23_linear_505_661)"/>
<path d="M81.324 65.2926C81.8545 64.4653 82.7879 64.0513 84.1238 64.0513V65.8096C83.9666 65.7802 83.824 65.7653 83.6964 65.7653C82.9794 65.7653 82.4193 65.9772 82.0167 66.4006C81.6139 66.8145 81.4125 67.4152 81.4125 68.2032V72.0301H79.5706V64.14H81.324V65.2926Z" fill="url(#paint24_linear_505_661)"/>
<path d="M90.1507 64.0513C91.1427 64.0513 91.9384 64.342 92.5377 64.9233C93.1367 65.5043 93.4365 66.3662 93.4365 67.5089V72.0301H91.5947V67.7452C91.5947 67.0559 91.4325 66.5386 91.1084 66.1939C90.7843 65.8392 90.3226 65.6619 89.7233 65.6619C89.0455 65.6619 88.5103 65.8689 88.1172 66.2826C87.7243 66.6863 87.5278 67.2725 87.5278 68.0408V72.0301H85.686V64.14H87.4394V65.1596C87.7441 64.7952 88.1271 64.5193 88.5888 64.3323C89.0505 64.145 89.5711 64.0513 90.1507 64.0513Z" fill="url(#paint25_linear_505_661)"/>
<path d="M95.773 64.14H97.6146V72.0301H95.773V64.14ZM96.7011 62.84C96.3671 62.84 96.0872 62.7364 95.8614 62.5297C95.6354 62.313 95.5224 62.047 95.5224 61.7317C95.5224 61.4164 95.6354 61.1554 95.8614 60.9487C96.0872 60.7318 96.3671 60.6234 96.7011 60.6234C97.0352 60.6234 97.3151 60.727 97.5411 60.9337C97.7671 61.1307 97.8798 61.382 97.8798 61.6874C97.8798 62.0124 97.7671 62.2883 97.5411 62.5147C97.325 62.7314 97.0448 62.84 96.7011 62.84Z" fill="url(#paint26_linear_505_661)"/>
<path d="M104.497 64.0513C105.489 64.0513 106.284 64.342 106.884 64.9233C107.483 65.5043 107.782 66.3662 107.782 67.5089V72.0301H105.941V67.7452C105.941 67.0559 105.778 66.5386 105.454 66.1939C105.13 65.8392 104.669 65.6619 104.069 65.6619C103.391 65.6619 102.856 65.8689 102.463 66.2826C102.07 66.6863 101.874 67.2725 101.874 68.0408V72.0301H100.032V64.14H101.786V65.1596C102.09 64.7952 102.473 64.5193 102.935 64.3323C103.396 64.145 103.917 64.0513 104.497 64.0513Z" fill="url(#paint27_linear_505_661)"/>
<path d="M118 64.14V70.8334C118 73.6111 116.586 75 113.757 75C113 75 112.283 74.9016 111.605 74.7044C110.927 74.5173 110.368 74.2417 109.926 73.877L110.751 72.4881C111.095 72.7738 111.527 73.0004 112.047 73.1677C112.578 73.3451 113.113 73.4337 113.653 73.4337C114.518 73.4337 115.151 73.2367 115.554 72.8427C115.957 72.4487 116.158 71.848 116.158 71.0401V70.6265C115.844 70.9711 115.461 71.2324 115.009 71.4095C114.557 71.5868 114.061 71.6754 113.521 71.6754C112.774 71.6754 112.097 71.5181 111.488 71.2028C110.888 70.8777 110.412 70.4245 110.058 69.8435C109.715 69.2622 109.542 68.5972 109.542 67.8488C109.542 67.1002 109.715 66.4402 110.058 65.8689C110.412 65.2876 110.888 64.8396 111.488 64.5243C112.097 64.209 112.774 64.0513 113.521 64.0513C114.091 64.0513 114.606 64.145 115.068 64.3323C115.54 64.5193 115.932 64.805 116.247 65.1892V64.14H118ZM113.801 70.1094C114.498 70.1094 115.068 69.9025 115.51 69.4888C115.962 69.0652 116.188 68.5185 116.188 67.8488C116.188 67.1889 115.962 66.6519 115.51 66.2382C115.068 65.8246 114.498 65.6176 113.801 65.6176C113.093 65.6176 112.514 65.8246 112.062 66.2382C111.62 66.6519 111.399 67.1889 111.399 67.8488C111.399 68.5185 111.62 69.0652 112.062 69.4888C112.514 69.9025 113.093 70.1094 113.801 70.1094Z" fill="url(#paint28_linear_505_661)"/>
<path d="M60.6663 40.893C60.4387 40.3739 59.9224 39.7341 58.7298 40.2598L57.679 40.7231L56.6776 38.4388C56.0744 37.0633 54.5774 36.9615 53.8172 37.6889C53.2671 38.2153 53.0167 39.055 53.3788 39.8805L56.9301 48.0327C56.0653 47.3756 54.4131 47.3829 53.6736 48.1468L53.6929 48.1174C52.9074 48.9285 53.039 50.0782 54.2308 51.0826L60.591 56.1022L69.7023 52.0857L69.752 51.2895C69.8809 49.2181 69.5137 47.1458 68.6808 45.2459L67.991 43.6728C67.9551 43.5912 67.9162 43.5114 67.8738 43.4338C67.3927 42.5522 66.3163 42.1886 65.3971 42.5894L64.7125 42.8879L63.9388 41.1228C63.6 40.3503 62.6973 39.9991 61.9292 40.3443L60.6663 40.893Z" fill="url(#paint29_linear_505_661)"/>
<path d="M69.1006 45.0609L68.4108 43.4878C68.37 43.3944 68.3248 43.3021 68.2761 43.2132C67.9886 42.6857 67.5165 42.2888 66.947 42.0952C66.3793 41.9022 65.7641 41.9279 65.2142 42.1676L64.9485 42.2836L64.6089 41.5089L64.6087 41.5087L64.3586 40.9379C64.1446 40.4502 63.7538 40.0759 63.2576 39.8844C62.7637 39.6937 62.2267 39.7076 61.7446 39.9233L60.8628 40.3062C60.6998 40.0736 60.5015 39.896 60.2705 39.7761C59.7882 39.5259 59.2077 39.5468 58.5451 39.8388L57.9142 40.1171L57.0975 38.2539C56.765 37.4953 56.1477 36.9749 55.4042 36.8259C54.7055 36.6858 53.9938 36.8841 53.5007 37.356C52.7604 38.0645 52.5477 39.1279 52.9584 40.0646L56.0524 47.167C55.7935 47.1143 55.5204 47.0904 55.2434 47.097C54.5237 47.1148 53.8768 47.3444 53.4434 47.7313C53.4151 47.7499 53.3885 47.7717 53.3639 47.7971C52.9283 48.2467 52.7138 48.7905 52.7431 49.3699C52.7795 50.0939 53.192 50.8079 53.9357 51.4346C53.9394 51.4377 53.9433 51.4409 53.9472 51.444L60.3074 56.4637C60.3895 56.5287 60.4897 56.562 60.591 56.562C60.6535 56.562 60.7163 56.5494 60.7754 56.5232L69.887 52.5067C70.0442 52.4374 70.1493 52.2861 70.1601 52.1143L70.2098 51.3181C70.3426 49.1832 69.9592 47.0194 69.1006 45.0609ZM65.3851 45.5648C65.4607 45.7372 65.6286 45.8397 65.8052 45.8397C65.8669 45.8397 65.9294 45.8271 65.9893 45.8009C66.2214 45.6986 66.3268 45.4271 66.2247 45.1947L65.3176 43.1256L65.5799 43.0112C66.2894 42.7017 67.1026 42.9784 67.4715 43.6547C67.5076 43.7205 67.5411 43.7887 67.5711 43.8577L68.2609 45.431C69.0609 47.2557 69.4182 49.2716 69.2942 51.261L69.262 51.7774L60.6585 55.5702L54.5203 50.7258C53.988 50.2754 53.6822 49.7776 53.6592 49.3232C53.6443 49.0289 53.745 48.7548 53.9585 48.5072C53.9739 48.4949 53.9885 48.4815 54.0027 48.4671C54.5517 47.8999 55.9209 47.8609 56.6358 48.3865L58.2155 49.9082C58.3044 49.9937 58.419 50.0362 58.5333 50.0362C58.6537 50.0362 58.774 49.989 58.864 49.8951C59.0395 49.7117 59.0337 49.4206 58.8509 49.2448L57.3138 47.7643L53.7986 39.6953C53.4907 38.9926 53.7698 38.3698 54.134 38.0215C54.4071 37.7602 54.8251 37.6477 55.2248 37.7277C55.6773 37.8185 56.0443 38.1367 56.2578 38.624L58.9207 44.6979C58.9961 44.8702 59.1643 44.9728 59.3408 44.9728C59.4023 44.9728 59.4651 44.9602 59.525 44.9337C59.757 44.8314 59.8622 44.5602 59.7604 44.3278L58.2835 40.9589L58.9145 40.6808C59.3108 40.5064 59.6252 40.4767 59.8491 40.5929C60.0079 40.6753 60.1416 40.8385 60.2465 41.078L61.8168 44.6601C61.8924 44.8325 62.0606 44.935 62.2369 44.935C62.2986 44.935 62.3611 44.9224 62.4213 44.8959C62.6531 44.7936 62.7585 44.5224 62.6565 44.2897L61.2716 41.131L62.1118 40.7661C62.1137 40.7653 62.1155 40.7645 62.1173 40.7637C62.3752 40.6478 62.6633 40.6402 62.928 40.7425C63.1945 40.8456 63.4043 41.0462 63.5192 41.3078L65.3851 45.5648Z" fill="white"/>
<path d="M67.2243 52.2189C67.0477 52.2189 66.8795 52.1161 66.8042 51.9438C66.7024 51.7111 66.8078 51.4398 67.0399 51.3378L67.4924 51.1387C67.7244 51.0367 67.9949 51.1426 68.0964 51.3753C68.1982 51.608 68.0927 51.8792 67.8607 51.9813L67.4082 52.1801C67.3483 52.2066 67.2857 52.2189 67.2243 52.2189Z" fill="white"/>
<path d="M61.0202 54.958C60.8437 54.958 60.6755 54.8552 60.5999 54.6826C60.4981 54.4501 60.6038 54.1789 60.8358 54.0769L65.6673 51.9516C65.8996 51.8498 66.1698 51.9556 66.2716 52.1882C66.3733 52.4209 66.2679 52.6921 66.0359 52.7939L61.2041 54.9192C61.1442 54.9454 61.0817 54.958 61.0202 54.958Z" fill="white"/>
<path d="M54.2033 35.9212C53.9904 35.9212 53.7994 35.7714 53.7547 35.5542L53.4405 34.0286C53.3892 33.7796 53.5488 33.5365 53.7968 33.4851C54.0448 33.4339 54.2875 33.5937 54.3388 33.8426L54.653 35.3682C54.7042 35.6169 54.5447 35.86 54.2964 35.9114C54.2653 35.918 54.2342 35.9212 54.2033 35.9212Z" fill="white"/>
<path d="M49.421 35.8509C49.3386 35.8509 49.2551 35.8286 49.1801 35.7819L48.8633 35.5851C48.648 35.4514 48.5813 35.1681 48.7147 34.9519C48.8481 34.736 49.1309 34.6694 49.3462 34.8032L49.6629 34.9999C49.8782 35.1337 49.9447 35.417 49.8113 35.6331C49.7247 35.7735 49.5745 35.8509 49.421 35.8509Z" fill="white"/>
<path d="M51.9319 37.5189C51.8454 37.5189 51.758 37.4945 51.6803 37.4434L50.702 36.7981C50.4903 36.6585 50.4315 36.3734 50.5709 36.1612C50.7101 35.949 50.9944 35.8899 51.206 36.0295L52.1844 36.6748C52.396 36.8143 52.4546 37.0995 52.3154 37.3117C52.2273 37.446 52.081 37.5189 51.9319 37.5189Z" fill="white"/>
<path d="M49.9311 40.5746C49.7181 40.5746 49.5272 40.4251 49.4824 40.2076C49.4312 39.9589 49.5907 39.7155 49.8387 39.6644L51.3601 39.3493C51.6084 39.2979 51.8508 39.4579 51.9021 39.7066C51.9534 39.9555 51.7938 40.1987 51.5456 40.2501L50.0242 40.5651C49.9931 40.5714 49.9617 40.5746 49.9311 40.5746Z" fill="white"/>
<path d="M51.9495 44.2205C51.8631 44.2205 51.7755 44.1958 51.6978 44.1447C51.4865 44.0051 51.4276 43.72 51.5668 43.5078L52.4206 42.2062C52.5595 41.994 52.8441 41.9349 53.0557 42.0748C53.2673 42.2143 53.3259 42.4994 53.1868 42.7116L52.3332 44.0132C52.2451 44.1475 52.0988 44.2205 51.9495 44.2205Z" fill="white"/>
<path d="M58.5299 38.6796C58.3167 38.6796 58.126 38.5301 58.081 38.3127C58.03 38.064 58.1896 37.8206 58.4376 37.7691L59.4518 37.5593C59.7 37.5079 59.9425 37.6679 59.9938 37.9166C60.045 38.1652 59.8855 38.4087 59.6375 38.4601L58.6231 38.6699C58.5917 38.6765 58.5605 38.6796 58.5299 38.6796Z" fill="white"/>
<path d="M61.3825 38.0889C61.1696 38.0889 60.9786 37.9394 60.9339 37.7219C60.8826 37.4733 61.0422 37.2298 61.2902 37.1787L61.6072 37.1128C61.8555 37.0617 62.098 37.2217 62.1492 37.4704C62.2005 37.719 62.0409 37.9625 61.7927 38.0136L61.4757 38.0795C61.4445 38.0858 61.4134 38.0889 61.3825 38.0889Z" fill="white"/>
<path d="M56.9363 36.4017C56.8498 36.4017 56.7624 36.3773 56.6847 36.3259C56.4731 36.1864 56.4145 35.9012 56.5536 35.689L57.4072 34.3874C57.5464 34.1755 57.8307 34.1164 58.0426 34.256C58.254 34.3955 58.3128 34.6807 58.1736 34.8929L57.3201 36.1945C57.2319 36.3288 57.0855 36.4017 56.9363 36.4017Z" fill="white"/>
<defs>
<radialGradient id="paint0_radial_505_661" cx="0" cy="0" r="1" gradientUnits="userSpaceOnUse" gradientTransform="translate(58.9999 37.4998) rotate(90) scale(37.5002 59.0001)">
<stop stop-color="#02C39A"/>
<stop offset="0.489583" stop-color="#00A896"/>
<stop offset="1" stop-color="#028090"/>
</radialGradient>
<linearGradient id="paint1_linear_505_661" x1="-6.88595" y1="50.3575" x2="1266.68" y2="19.1414" gradientUnits="userSpaceOnUse">
<stop stop-color="#05668D"/>
<stop offset="0.390625" stop-color="#028090"/>
<stop offset="0.619792" stop-color="#00A896"/>
<stop offset="1" stop-color="#02C39A"/>
</linearGradient>
<linearGradient id="paint2_linear_505_661" x1="-207.24" y1="43.5324" x2="1618.2" y2="-4.57173" gradientUnits="userSpaceOnUse">
<stop stop-color="#05668D"/>
<stop offset="0.390625" stop-color="#028090"/>
<stop offset="0.619792" stop-color="#00A896"/>
<stop offset="1" stop-color="#02C39A"/>
</linearGradient>
<linearGradient id="paint3_linear_505_661" x1="-756.124" y1="51.6112" x2="3049.63" y2="-239.902" gradientUnits="userSpaceOnUse">
<stop stop-color="#05668D"/>
<stop offset="0.390625" stop-color="#028090"/>
<stop offset="0.619792" stop-color="#00A896"/>
<stop offset="1" stop-color="#02C39A"/>
</linearGradient>
<linearGradient id="paint4_linear_505_661" x1="-1421.45" y1="52.989" x2="4493.38" y2="-679.605" gradientUnits="userSpaceOnUse">
<stop stop-color="#05668D"/>
<stop offset="0.390625" stop-color="#028090"/>
<stop offset="0.619792" stop-color="#00A896"/>
<stop offset="1" stop-color="#02C39A"/>
</linearGradient>
<linearGradient id="paint5_linear_505_661" x1="-501.007" y1="43.5324" x2="1324.39" y2="-4.56913" gradientUnits="userSpaceOnUse">
<stop stop-color="#05668D"/>
<stop offset="0.390625" stop-color="#028090"/>
<stop offset="0.619792" stop-color="#00A896"/>
<stop offset="1" stop-color="#02C39A"/>
</linearGradient>
<linearGradient id="paint6_linear_505_661" x1="-623.292" y1="42.9743" x2="1138.53" y2="-2.41579" gradientUnits="userSpaceOnUse">
<stop stop-color="#05668D"/>
<stop offset="0.390625" stop-color="#028090"/>
<stop offset="0.619792" stop-color="#00A896"/>
<stop offset="1" stop-color="#02C39A"/>
</linearGradient>
<linearGradient id="paint7_linear_505_661" x1="-845.945" y1="50.7247" x2="1088.67" y2="-19.3566" gradientUnits="userSpaceOnUse">
<stop stop-color="#05668D"/>
<stop offset="0.390625" stop-color="#028090"/>
<stop offset="0.619792" stop-color="#00A896"/>
<stop offset="1" stop-color="#02C39A"/>
</linearGradient>
<linearGradient id="paint8_linear_505_661" x1="-886.318" y1="42.9743" x2="875.507" y2="-2.41579" gradientUnits="userSpaceOnUse">
<stop stop-color="#05668D"/>
<stop offset="0.390625" stop-color="#028090"/>
<stop offset="0.619792" stop-color="#00A896"/>
<stop offset="1" stop-color="#02C39A"/>
</linearGradient>
<linearGradient id="paint9_linear_505_661" x1="-982.946" y1="42.9743" x2="713.641" y2="0.885501" gradientUnits="userSpaceOnUse">
<stop stop-color="#05668D"/>
<stop offset="0.390625" stop-color="#028090"/>
<stop offset="0.619792" stop-color="#00A896"/>
<stop offset="1" stop-color="#02C39A"/>
</linearGradient>
<linearGradient id="paint10_linear_505_661" x1="-2078.95" y1="43.5324" x2="1024.2" y2="-95.6625" gradientUnits="userSpaceOnUse">
<stop stop-color="#05668D"/>
<stop offset="0.390625" stop-color="#028090"/>
<stop offset="0.619792" stop-color="#00A896"/>
<stop offset="1" stop-color="#02C39A"/>
</linearGradient>
<linearGradient id="paint11_linear_505_661" x1="-1314.42" y1="43.5324" x2="510.977" y2="-4.56914" gradientUnits="userSpaceOnUse">
<stop stop-color="#05668D"/>
<stop offset="0.390625" stop-color="#028090"/>
<stop offset="0.619792" stop-color="#00A896"/>
<stop offset="1" stop-color="#02C39A"/>
</linearGradient>
<linearGradient id="paint12_linear_505_661" x1="-4813.81" y1="52.989" x2="1101.02" y2="-679.605" gradientUnits="userSpaceOnUse">
<stop stop-color="#05668D"/>
<stop offset="0.390625" stop-color="#028090"/>
<stop offset="0.619792" stop-color="#00A896"/>
<stop offset="1" stop-color="#02C39A"/>
</linearGradient>
<linearGradient id="paint13_linear_505_661" x1="-1532.89" y1="43.5324" x2="292.57" y2="-4.5724" gradientUnits="userSpaceOnUse">
<stop stop-color="#05668D"/>
<stop offset="0.390625" stop-color="#028090"/>
<stop offset="0.619792" stop-color="#00A896"/>
<stop offset="1" stop-color="#02C39A"/>
</linearGradient>
<linearGradient id="paint14_linear_505_661" x1="-1537.37" y1="31.7239" x2="134.741" y2="-23.6848" gradientUnits="userSpaceOnUse">
<stop stop-color="#05668D"/>
<stop offset="0.390625" stop-color="#028090"/>
<stop offset="0.619792" stop-color="#00A896"/>
<stop offset="1" stop-color="#02C39A"/>
</linearGradient>
<linearGradient id="paint15_linear_505_661" x1="-6.88595" y1="50.3575" x2="1266.68" y2="19.1414" gradientUnits="userSpaceOnUse">
<stop stop-color="#05668D"/>
<stop offset="0.390625" stop-color="#028090"/>
<stop offset="0.619792" stop-color="#00A896"/>
<stop offset="1" stop-color="#02C39A"/>
</linearGradient>
<linearGradient id="paint16_linear_505_661" x1="-207.24" y1="43.5324" x2="1618.2" y2="-4.57173" gradientUnits="userSpaceOnUse">
<stop stop-color="#05668D"/>
<stop offset="0.390625" stop-color="#028090"/>
<stop offset="0.619792" stop-color="#00A896"/>
<stop offset="1" stop-color="#02C39A"/>
</linearGradient>
<linearGradient id="paint17_linear_505_661" x1="-756.124" y1="51.6112" x2="3049.63" y2="-239.902" gradientUnits="userSpaceOnUse">
<stop stop-color="#05668D"/>
<stop offset="0.390625" stop-color="#028090"/>
<stop offset="0.619792" stop-color="#00A896"/>
<stop offset="1" stop-color="#02C39A"/>
</linearGradient>
<linearGradient id="paint18_linear_505_661" x1="-1421.45" y1="52.989" x2="4493.38" y2="-679.605" gradientUnits="userSpaceOnUse">
<stop stop-color="#05668D"/>
<stop offset="0.390625" stop-color="#028090"/>
<stop offset="0.619792" stop-color="#00A896"/>
<stop offset="1" stop-color="#02C39A"/>
</linearGradient>
<linearGradient id="paint19_linear_505_661" x1="-501.007" y1="43.5324" x2="1324.39" y2="-4.56913" gradientUnits="userSpaceOnUse">
<stop stop-color="#05668D"/>
<stop offset="0.390625" stop-color="#028090"/>
<stop offset="0.619792" stop-color="#00A896"/>
<stop offset="1" stop-color="#02C39A"/>
</linearGradient>
<linearGradient id="paint20_linear_505_661" x1="-623.292" y1="42.9743" x2="1138.53" y2="-2.41579" gradientUnits="userSpaceOnUse">
<stop stop-color="#05668D"/>
<stop offset="0.390625" stop-color="#028090"/>
<stop offset="0.619792" stop-color="#00A896"/>
<stop offset="1" stop-color="#02C39A"/>
</linearGradient>
<linearGradient id="paint21_linear_505_661" x1="-845.945" y1="50.7247" x2="1088.67" y2="-19.3566" gradientUnits="userSpaceOnUse">
<stop stop-color="#05668D"/>
<stop offset="0.390625" stop-color="#028090"/>
<stop offset="0.619792" stop-color="#00A896"/>
<stop offset="1" stop-color="#02C39A"/>
</linearGradient>
<linearGradient id="paint22_linear_505_661" x1="-886.318" y1="42.9743" x2="875.507" y2="-2.41579" gradientUnits="userSpaceOnUse">
<stop stop-color="#05668D"/>
<stop offset="0.390625" stop-color="#028090"/>
<stop offset="0.619792" stop-color="#00A896"/>
<stop offset="1" stop-color="#02C39A"/>
</linearGradient>
<linearGradient id="paint23_linear_505_661" x1="-982.946" y1="42.9743" x2="713.641" y2="0.885501" gradientUnits="userSpaceOnUse">
<stop stop-color="#05668D"/>
<stop offset="0.390625" stop-color="#028090"/>
<stop offset="0.619792" stop-color="#00A896"/>
<stop offset="1" stop-color="#02C39A"/>
</linearGradient>
<linearGradient id="paint24_linear_505_661" x1="-2078.95" y1="43.5324" x2="1024.2" y2="-95.6625" gradientUnits="userSpaceOnUse">
<stop stop-color="#05668D"/>
<stop offset="0.390625" stop-color="#028090"/>
<stop offset="0.619792" stop-color="#00A896"/>
<stop offset="1" stop-color="#02C39A"/>
</linearGradient>
<linearGradient id="paint25_linear_505_661" x1="-1314.42" y1="43.5324" x2="510.977" y2="-4.56914" gradientUnits="userSpaceOnUse">
<stop stop-color="#05668D"/>
<stop offset="0.390625" stop-color="#028090"/>
<stop offset="0.619792" stop-color="#00A896"/>
<stop offset="1" stop-color="#02C39A"/>
</linearGradient>
<linearGradient id="paint26_linear_505_661" x1="-4813.81" y1="52.989" x2="1101.02" y2="-679.605" gradientUnits="userSpaceOnUse">
<stop stop-color="#05668D"/>
<stop offset="0.390625" stop-color="#028090"/>
<stop offset="0.619792" stop-color="#00A896"/>
<stop offset="1" stop-color="#02C39A"/>
</linearGradient>
<linearGradient id="paint27_linear_505_661" x1="-1532.89" y1="43.5324" x2="292.57" y2="-4.5724" gradientUnits="userSpaceOnUse">
<stop stop-color="#05668D"/>
<stop offset="0.390625" stop-color="#028090"/>
<stop offset="0.619792" stop-color="#00A896"/>
<stop offset="1" stop-color="#02C39A"/>
</linearGradient>
<linearGradient id="paint28_linear_505_661" x1="-1537.37" y1="31.7239" x2="134.741" y2="-23.6848" gradientUnits="userSpaceOnUse">
<stop stop-color="#05668D"/>
<stop offset="0.390625" stop-color="#028090"/>
<stop offset="0.619792" stop-color="#00A896"/>
<stop offset="1" stop-color="#02C39A"/>
</linearGradient>
<linearGradient id="paint29_linear_505_661" x1="44.4275" y1="-14.9796" x2="44.4275" y2="76.8286" gradientUnits="userSpaceOnUse">
<stop stop-color="#046C8E"/>
<stop offset="1" stop-color="#02C19A"/>
</linearGradient>
</defs>
</svg>
