<svg width="118" height="75" fill="none" xmlns="http://www.w3.org/2000/svg"><path d="M54.803 56.581c-2.713-3.194-7.241-6.61-11.627-8.771-4.428-2.183-8.634-3.395-13.41-3.864-.941-.092-1.722-.177-1.734-.19-.013 0 .012-9.857.06-21.879l.08-21.856.87.086C34.381.637 40.34 2.66 44.848 5.48c3.885 2.43 7.897 6.18 10.455 9.775l.644.905v20.76c0 11.419-.049 20.76-.107 20.757-.061-.001-.527-.495-1.037-1.096Zm4.422-40.56 1.243-1.666c1.588-2.127 4.78-5.33 6.891-6.915C73.004 3.205 79.124.812 86.153.092L87.044 0v43.774l-1.034.098c-9.786.913-18.27 4.961-24.906 11.884l-1.879 1.96V16.02Zm6.063 40.278c3.841-3.613 8.926-6.484 14.033-7.925 2.673-.754 6.148-1.28 8.456-1.28 1.21 0 1.88-.263 2.259-.886.285-.47.288-.672.288-18.407l.001-17.934.535.098c.294.06 1.129.293 1.855.525l1.319.421v22.381c0 12.31-.049 22.382-.109 22.382s-.943-.189-1.962-.42c-4.025-.91-7.34-1.223-11.695-1.105-5.282.146-9.387.885-14.266 2.576l-1.855.642 1.141-1.068Zm-16.263.348c-2.026-.727-5.373-1.585-7.632-1.955-3.072-.5-5.191-.633-8.956-.55-3.741.08-6.004.342-9.09 1.045-.864.195-1.746.397-1.962.44l-.392.085.001-44.883 1.676-.489c.921-.268 1.756-.519 1.854-.55.142-.06.178 3.596.178 17.915 0 19.566-.042 18.476.79 19.024.29.19.892.275 2.611.379 6.832.39 13.315 2.69 18.607 6.605 1.142.844 3.88 3.163 4.038 3.417.11.177.036.159-1.722-.476v-.007Z" fill="url(#a)"/><path d="M5.555 72.178c-1.051 0-2-.227-2.844-.68a5.15 5.15 0 0 1-1.989-1.906C.241 68.775 0 67.864 0 66.86c0-1.005.24-1.911.722-2.719a5.013 5.013 0 0 1 1.99-1.906c.844-.463 1.792-.694 2.843-.694s1.999.231 2.844.694a5.043 5.043 0 0 1 1.989 1.891c.481.808.722 1.72.722 2.734s-.24 1.925-.722 2.733a5.15 5.15 0 0 1-1.99 1.906c-.844.453-1.792.68-2.843.68Zm0-1.684c.688 0 1.306-.153 1.856-.459a3.43 3.43 0 0 0 1.297-1.3 3.775 3.775 0 0 0 .472-1.876c0-.69-.158-1.31-.472-1.862a3.297 3.297 0 0 0-1.297-1.3 3.666 3.666 0 0 0-1.856-.473c-.688 0-1.307.158-1.857.473-.55.305-.982.739-1.296 1.3a3.693 3.693 0 0 0-.472 1.862c0 .69.157 1.315.472 1.876a3.43 3.43 0 0 0 1.296 1.3c.55.306 1.17.459 1.857.459Z" fill="url(#b)"/><path d="M17.428 64.051c.992 0 1.788.291 2.387.872.6.581.899 1.443.899 2.586v4.521h-1.842v-4.285c0-.69-.162-1.206-.486-1.551-.325-.355-.786-.532-1.385-.532-.678 0-1.214.207-1.607.62-.392.404-.589.99-.589 1.759v3.99h-1.842V64.14h1.754v1.02c.304-.365.687-.64 1.149-.828a4.123 4.123 0 0 1 1.562-.28Z" fill="url(#c)"/><path d="M25.643 72.134c-.815 0-1.453-.222-1.915-.665-.452-.453-.678-1.089-.678-1.906v-8.496h1.842v8.363c0 .788.368 1.182 1.105 1.182.246 0 .467-.05.663-.148l.088 1.477a3.141 3.141 0 0 1-1.105.193Z" fill="url(#d)"/><path d="M28 64.14h1.842v7.89H28v-7.89Zm.928-1.3c-.334 0-.614-.104-.84-.31a1.063 1.063 0 0 1-.338-.798c0-.316.113-.577.338-.783.226-.217.506-.326.84-.326.334 0 .614.104.84.31a.956.956 0 0 1 .339.754c0 .325-.113.601-.339.828-.216.216-.496.325-.84.325Z" fill="url(#e)"/><path d="M36.724 64.051c.992 0 1.788.291 2.387.872s.899 1.443.899 2.586v4.521h-1.842v-4.285c0-.69-.162-1.206-.486-1.551-.325-.355-.786-.532-1.386-.532-.677 0-1.213.207-1.606.62-.393.404-.59.99-.59 1.759v3.99h-1.84V64.14h1.753v1.02a2.88 2.88 0 0 1 1.149-.828 4.123 4.123 0 0 1 1.562-.28Z" fill="url(#f)"/><path d="M46.16 70.567c.855 0 1.567-.285 2.137-.856l.973 1.137a3.21 3.21 0 0 1-1.327.96c-.54.217-1.149.326-1.827.326-.864 0-1.625-.173-2.284-.518a3.782 3.782 0 0 1-1.532-1.433c-.354-.62-.53-1.32-.53-2.098 0-.768.171-1.458.515-2.068a3.78 3.78 0 0 1 1.444-1.448c.619-.345 1.317-.518 2.093-.518.736 0 1.404.163 2.004.488.608.315 1.09.773 1.444 1.374.353.591.53 1.286.53 2.084l-6.026 1.181c.186.454.486.798.898 1.035.413.236.909.354 1.489.354Zm-.338-5.038c-.678 0-1.228.222-1.65.665-.413.443-.62 1.04-.62 1.788v.014l4.45-.856a2.088 2.088 0 0 0-.78-1.168c-.384-.295-.85-.443-1.4-.443Z" fill="url(#g)"/><path d="M51.746 61.687h1.916v8.718h5.393v1.625h-7.309V61.687Z" fill="url(#h)"/><path d="M64.06 70.567c.855 0 1.567-.285 2.137-.856l.973 1.137a3.21 3.21 0 0 1-1.327.96c-.54.217-1.149.326-1.827.326-.864 0-1.625-.173-2.284-.518a3.782 3.782 0 0 1-1.532-1.433c-.354-.62-.53-1.32-.53-2.098 0-.768.172-1.458.515-2.068a3.78 3.78 0 0 1 1.444-1.448c.62-.345 1.317-.518 2.093-.518.736 0 1.404.163 2.004.488.609.315 1.09.773 1.444 1.374.353.591.53 1.286.53 2.084l-6.026 1.181c.186.454.486.798.898 1.035.413.236.909.354 1.489.354Zm-.338-5.038c-.678 0-1.228.222-1.65.665-.413.443-.62 1.04-.62 1.788v.014l4.45-.856a2.088 2.088 0 0 0-.78-1.168c-.384-.295-.85-.443-1.4-.443Z" fill="url(#i)"/><path d="M77.16 64.14v7.89h-1.752v-1.02a2.839 2.839 0 0 1-1.135.843 3.74 3.74 0 0 1-1.474.28c-.766 0-1.453-.167-2.062-.502a3.63 3.63 0 0 1-1.415-1.418c-.334-.61-.5-1.32-.5-2.128 0-.807.166-1.512.5-2.113a3.631 3.631 0 0 1 1.415-1.418c.609-.335 1.296-.503 2.063-.503.51 0 .977.089 1.4.266.432.178.805.439 1.12.784v-.961h1.84Zm-4.154 6.412c.678 0 1.237-.226 1.68-.68.442-.452.663-1.048.663-1.787 0-.739-.221-1.334-.663-1.788-.443-.453-1.002-.68-1.68-.68-.678 0-1.238.227-1.68.68-.432.454-.648 1.05-.648 1.788 0 .739.216 1.335.648 1.788.442.453 1.002.68 1.68.68Z" fill="url(#j)"/><path d="M81.324 65.293c.53-.828 1.464-1.242 2.8-1.242v1.759c-.157-.03-.3-.045-.428-.045-.717 0-1.277.212-1.68.636-.402.413-.604 1.014-.604 1.802v3.827h-1.841v-7.89h1.753v1.153Z" fill="url(#k)"/><path d="M90.15 64.051c.993 0 1.788.291 2.388.872.599.581.898 1.443.898 2.586v4.521h-1.841v-4.285c0-.69-.162-1.206-.487-1.551-.324-.355-.785-.532-1.385-.532-.677 0-1.213.207-1.606.62-.393.404-.59.99-.59 1.759v3.99h-1.841V64.14h1.753v1.02a2.88 2.88 0 0 1 1.15-.828 4.123 4.123 0 0 1 1.562-.28Z" fill="url(#l)"/><path d="M95.773 64.14h1.842v7.89h-1.842v-7.89Zm.928-1.3c-.334 0-.614-.104-.84-.31a1.063 1.063 0 0 1-.339-.798c0-.316.113-.577.34-.783.225-.217.505-.326.84-.326.333 0 .613.104.84.31a.955.955 0 0 1 .338.754c0 .325-.113.601-.339.828-.216.216-.496.325-.84.325Z" fill="url(#m)"/><path d="M104.497 64.051c.992 0 1.787.291 2.387.872.599.581.898 1.443.898 2.586v4.521h-1.841v-4.285c0-.69-.163-1.206-.487-1.551-.324-.355-.785-.532-1.385-.532-.678 0-1.213.207-1.606.62-.393.404-.589.99-.589 1.759v3.99h-1.842V64.14h1.754v1.02c.304-.365.687-.64 1.149-.828a4.12 4.12 0 0 1 1.562-.28Z" fill="url(#n)"/><path d="M118 64.14v6.693c0 2.778-1.414 4.167-4.243 4.167a7.667 7.667 0 0 1-2.152-.296c-.678-.187-1.237-.462-1.679-.827l.825-1.389c.344.286.776.512 1.296.68a5.038 5.038 0 0 0 1.606.266c.865 0 1.498-.197 1.901-.591.403-.394.604-.995.604-1.803v-.414a3.022 3.022 0 0 1-1.149.783 4.04 4.04 0 0 1-1.488.266c-.747 0-1.424-.157-2.033-.472a3.722 3.722 0 0 1-1.43-1.36c-.343-.58-.516-1.246-.516-1.994 0-.749.173-1.409.516-1.98.354-.581.83-1.03 1.43-1.345a4.353 4.353 0 0 1 2.033-.473c.57 0 1.085.094 1.547.281a2.86 2.86 0 0 1 1.179.857V64.14H118Zm-4.199 5.97c.697 0 1.267-.207 1.709-.621.452-.424.678-.97.678-1.64 0-.66-.226-1.197-.678-1.61-.442-.414-1.012-.621-1.709-.621-.708 0-1.287.207-1.739.62-.442.414-.663.95-.663 1.61 0 .67.221 1.217.663 1.64.452.415 1.031.621 1.739.621Z" fill="url(#o)"/><path d="M5.555 72.178c-1.051 0-2-.227-2.844-.68a5.15 5.15 0 0 1-1.989-1.906C.241 68.775 0 67.864 0 66.86c0-1.005.24-1.911.722-2.719a5.013 5.013 0 0 1 1.99-1.906c.844-.463 1.792-.694 2.843-.694s1.999.231 2.844.694a5.043 5.043 0 0 1 1.989 1.891c.481.808.722 1.72.722 2.734s-.24 1.925-.722 2.733a5.15 5.15 0 0 1-1.99 1.906c-.844.453-1.792.68-2.843.68Zm0-1.684c.688 0 1.306-.153 1.856-.459a3.43 3.43 0 0 0 1.297-1.3 3.775 3.775 0 0 0 .472-1.876c0-.69-.158-1.31-.472-1.862a3.297 3.297 0 0 0-1.297-1.3 3.666 3.666 0 0 0-1.856-.473c-.688 0-1.307.158-1.857.473-.55.305-.982.739-1.296 1.3a3.693 3.693 0 0 0-.472 1.862c0 .69.157 1.315.472 1.876a3.43 3.43 0 0 0 1.296 1.3c.55.306 1.17.459 1.857.459Z" fill="url(#p)"/><path d="M17.428 64.051c.992 0 1.788.291 2.387.872.6.581.899 1.443.899 2.586v4.521h-1.842v-4.285c0-.69-.162-1.206-.486-1.551-.325-.355-.786-.532-1.385-.532-.678 0-1.214.207-1.607.62-.392.404-.589.99-.589 1.759v3.99h-1.842V64.14h1.754v1.02c.304-.365.687-.64 1.149-.828a4.123 4.123 0 0 1 1.562-.28Z" fill="url(#q)"/><path d="M25.643 72.134c-.815 0-1.453-.222-1.915-.665-.452-.453-.678-1.089-.678-1.906v-8.496h1.842v8.363c0 .788.368 1.182 1.105 1.182.246 0 .467-.05.663-.148l.088 1.477a3.141 3.141 0 0 1-1.105.193Z" fill="url(#r)"/><path d="M28 64.14h1.842v7.89H28v-7.89Zm.928-1.3c-.334 0-.614-.104-.84-.31a1.063 1.063 0 0 1-.338-.798c0-.316.113-.577.338-.783.226-.217.506-.326.84-.326.334 0 .614.104.84.31a.956.956 0 0 1 .339.754c0 .325-.113.601-.339.828-.216.216-.496.325-.84.325Z" fill="url(#s)"/><path d="M36.724 64.051c.992 0 1.788.291 2.387.872s.899 1.443.899 2.586v4.521h-1.842v-4.285c0-.69-.162-1.206-.486-1.551-.325-.355-.786-.532-1.386-.532-.677 0-1.213.207-1.606.62-.393.404-.59.99-.59 1.759v3.99h-1.84V64.14h1.753v1.02a2.88 2.88 0 0 1 1.149-.828 4.123 4.123 0 0 1 1.562-.28Z" fill="url(#t)"/><path d="M46.16 70.567c.855 0 1.567-.285 2.137-.856l.973 1.137a3.21 3.21 0 0 1-1.327.96c-.54.217-1.149.326-1.827.326-.864 0-1.625-.173-2.284-.518a3.782 3.782 0 0 1-1.532-1.433c-.354-.62-.53-1.32-.53-2.098 0-.768.171-1.458.515-2.068a3.78 3.78 0 0 1 1.444-1.448c.619-.345 1.317-.518 2.093-.518.736 0 1.404.163 2.004.488.608.315 1.09.773 1.444 1.374.353.591.53 1.286.53 2.084l-6.026 1.181c.186.454.486.798.898 1.035.413.236.909.354 1.489.354Zm-.338-5.038c-.678 0-1.228.222-1.65.665-.413.443-.62 1.04-.62 1.788v.014l4.45-.856a2.088 2.088 0 0 0-.78-1.168c-.384-.295-.85-.443-1.4-.443Z" fill="url(#u)"/><path d="M51.746 61.687h1.916v8.718h5.393v1.625h-7.309V61.687Z" fill="url(#v)"/><path d="M64.06 70.567c.855 0 1.567-.285 2.137-.856l.973 1.137a3.21 3.21 0 0 1-1.327.96c-.54.217-1.149.326-1.827.326-.864 0-1.625-.173-2.284-.518a3.782 3.782 0 0 1-1.532-1.433c-.354-.62-.53-1.32-.53-2.098 0-.768.172-1.458.515-2.068a3.78 3.78 0 0 1 1.444-1.448c.62-.345 1.317-.518 2.093-.518.736 0 1.404.163 2.004.488.609.315 1.09.773 1.444 1.374.353.591.53 1.286.53 2.084l-6.026 1.181c.186.454.486.798.898 1.035.413.236.909.354 1.489.354Zm-.338-5.038c-.678 0-1.228.222-1.65.665-.413.443-.62 1.04-.62 1.788v.014l4.45-.856a2.088 2.088 0 0 0-.78-1.168c-.384-.295-.85-.443-1.4-.443Z" fill="url(#w)"/><path d="M77.16 64.14v7.89h-1.752v-1.02a2.839 2.839 0 0 1-1.135.843 3.74 3.74 0 0 1-1.474.28c-.766 0-1.453-.167-2.062-.502a3.63 3.63 0 0 1-1.415-1.418c-.334-.61-.5-1.32-.5-2.128 0-.807.166-1.512.5-2.113a3.631 3.631 0 0 1 1.415-1.418c.609-.335 1.296-.503 2.063-.503.51 0 .977.089 1.4.266.432.178.805.439 1.12.784v-.961h1.84Zm-4.154 6.412c.678 0 1.237-.226 1.68-.68.442-.452.663-1.048.663-1.787 0-.739-.221-1.334-.663-1.788-.443-.453-1.002-.68-1.68-.68-.678 0-1.238.227-1.68.68-.432.454-.648 1.05-.648 1.788 0 .739.216 1.335.648 1.788.442.453 1.002.68 1.68.68Z" fill="url(#x)"/><path d="M81.324 65.293c.53-.828 1.464-1.242 2.8-1.242v1.759c-.157-.03-.3-.045-.428-.045-.717 0-1.277.212-1.68.636-.402.413-.604 1.014-.604 1.802v3.827h-1.841v-7.89h1.753v1.153Z" fill="url(#y)"/><path d="M90.15 64.051c.993 0 1.788.291 2.388.872.599.581.898 1.443.898 2.586v4.521h-1.841v-4.285c0-.69-.162-1.206-.487-1.551-.324-.355-.785-.532-1.385-.532-.677 0-1.213.207-1.606.62-.393.404-.59.99-.59 1.759v3.99h-1.841V64.14h1.753v1.02a2.88 2.88 0 0 1 1.15-.828 4.123 4.123 0 0 1 1.562-.28Z" fill="url(#z)"/><path d="M95.773 64.14h1.842v7.89h-1.842v-7.89Zm.928-1.3c-.334 0-.614-.104-.84-.31a1.063 1.063 0 0 1-.339-.798c0-.316.113-.577.34-.783.225-.217.505-.326.84-.326.333 0 .613.104.84.31a.955.955 0 0 1 .338.754c0 .325-.113.601-.339.828-.216.216-.496.325-.84.325Z" fill="url(#A)"/><path d="M104.497 64.051c.992 0 1.787.291 2.387.872.599.581.898 1.443.898 2.586v4.521h-1.841v-4.285c0-.69-.163-1.206-.487-1.551-.324-.355-.785-.532-1.385-.532-.678 0-1.213.207-1.606.62-.393.404-.589.99-.589 1.759v3.99h-1.842V64.14h1.754v1.02c.304-.365.687-.64 1.149-.828a4.12 4.12 0 0 1 1.562-.28Z" fill="url(#B)"/><path d="M118 64.14v6.693c0 2.778-1.414 4.167-4.243 4.167a7.667 7.667 0 0 1-2.152-.296c-.678-.187-1.237-.462-1.679-.827l.825-1.389c.344.286.776.512 1.296.68a5.038 5.038 0 0 0 1.606.266c.865 0 1.498-.197 1.901-.591.403-.394.604-.995.604-1.803v-.414a3.022 3.022 0 0 1-1.149.783 4.04 4.04 0 0 1-1.488.266c-.747 0-1.424-.157-2.033-.472a3.722 3.722 0 0 1-1.43-1.36c-.343-.58-.516-1.246-.516-1.994 0-.749.173-1.409.516-1.98.354-.581.83-1.03 1.43-1.345a4.353 4.353 0 0 1 2.033-.473c.57 0 1.085.094 1.547.281a2.86 2.86 0 0 1 1.179.857V64.14H118Zm-4.199 5.97c.697 0 1.267-.207 1.709-.621.452-.424.678-.97.678-1.64 0-.66-.226-1.197-.678-1.61-.442-.414-1.012-.621-1.709-.621-.708 0-1.287.207-1.739.62-.442.414-.663.95-.663 1.61 0 .67.221 1.217.663 1.64.452.415 1.031.621 1.739.621Z" fill="url(#C)"/><path d="M60.666 40.893c-.227-.52-.744-1.159-1.936-.633l-1.051.463-1.001-2.284c-.604-1.376-2.1-1.477-2.86-.75-.55.526-.801 1.366-.44 2.191l3.552 8.153c-.865-.657-2.517-.65-3.256.114l.019-.03c-.786.812-.654 1.961.538 2.966l6.36 5.02 9.111-4.017.05-.797a13.037 13.037 0 0 0-1.071-6.043l-.69-1.573a3.11 3.11 0 0 0-.117-.24 1.938 1.938 0 0 0-2.477-.844l-.684.299-.774-1.765a1.518 1.518 0 0 0-2.01-.779l-1.263.549Z" fill="url(#D)"/><path d="m69.1 45.06-.69-1.572a3.438 3.438 0 0 0-.134-.275 2.396 2.396 0 0 0-3.062-1.046l-.266.117-.34-.775-.25-.571a1.969 1.969 0 0 0-1.1-1.054 1.954 1.954 0 0 0-1.513.04l-.882.382a1.652 1.652 0 0 0-.593-.53c-.482-.25-1.062-.23-1.725.063l-.63.278-.818-1.863c-.332-.759-.95-1.28-1.693-1.428a2.14 2.14 0 0 0-1.903.53 2.388 2.388 0 0 0-.543 2.709l3.094 7.102a3.635 3.635 0 0 0-.809-.07c-.72.018-1.366.247-1.8.634a.469.469 0 0 0-.08.066c-.435.45-.65.994-.62 1.573.036.724.449 1.438 1.193 2.065a.581.581 0 0 0 .011.009l6.36 5.02a.456.456 0 0 0 .468.06l9.112-4.017a.46.46 0 0 0 .273-.393l.05-.796a13.557 13.557 0 0 0-1.11-6.257Zm-3.715.505a.458.458 0 1 0 .84-.37l-.907-2.07.262-.114a1.471 1.471 0 0 1 1.892.644c.036.066.07.134.1.203l.689 1.573c.8 1.825 1.157 3.84 1.033 5.83l-.032.516-8.604 3.793-6.138-4.844c-.532-.45-.838-.948-.86-1.403a1.135 1.135 0 0 1 .299-.816.503.503 0 0 0 .044-.04c.549-.567 1.918-.606 2.633-.08l1.58 1.521a.457.457 0 0 0 .648-.013.46.46 0 0 0-.013-.65l-1.537-1.48-3.515-8.07c-.308-.702-.03-1.325.335-1.673.273-.262.691-.374 1.09-.294.453.09.82.409 1.034.896l2.663 6.074a.458.458 0 1 0 .84-.37l-1.478-3.37.631-.277c.397-.175.711-.204.935-.088.159.082.293.245.398.485l1.57 3.582a.459.459 0 1 0 .84-.37l-1.385-3.159.84-.365.005-.002a1.058 1.058 0 0 1 1.402.544l1.866 4.257Z" fill="#fff"/><path d="M67.224 52.219a.46.46 0 0 1-.184-.881l.452-.2a.46.46 0 0 1 .368.843l-.452.2a.454.454 0 0 1-.184.038ZM61.02 54.958a.459.459 0 0 1-.184-.881l4.831-2.125a.46.46 0 0 1 .369.842l-4.832 2.125a.458.458 0 0 1-.184.039ZM54.203 35.921a.46.46 0 0 1-.448-.367l-.315-1.525a.46.46 0 1 1 .899-.186l.314 1.525a.46.46 0 0 1-.45.553ZM49.421 35.85a.455.455 0 0 1-.24-.068l-.318-.197a.46.46 0 0 1-.148-.633.458.458 0 0 1 .631-.149l.317.197a.46.46 0 0 1-.242.85ZM51.932 37.519a.456.456 0 0 1-.252-.076l-.978-.645a.46.46 0 0 1 .504-.769l.978.646a.46.46 0 0 1-.252.844ZM49.931 40.575a.459.459 0 0 1-.092-.91l1.521-.316a.46.46 0 0 1 .185.9l-1.52.316a.47.47 0 0 1-.094.01ZM51.95 44.22a.46.46 0 0 1-.383-.713l.854-1.3a.457.457 0 0 1 .635-.132.46.46 0 0 1 .13.637l-.853 1.301a.458.458 0 0 1-.383.208ZM58.53 38.68a.46.46 0 0 1-.092-.91l1.014-.21a.46.46 0 0 1 .186.9l-1.015.21a.453.453 0 0 1-.093.01ZM61.383 38.089a.459.459 0 0 1-.093-.91l.317-.066a.459.459 0 0 1 .186.9l-.317.067a.47.47 0 0 1-.093.009ZM56.936 36.402a.46.46 0 0 1-.383-.713l.854-1.302a.458.458 0 1 1 .767.506l-.854 1.301a.458.458 0 0 1-.384.208Z" fill="#fff"/><defs><linearGradient id="p" x1="-6.886" y1="50.358" x2="1266.68" y2="19.141" gradientUnits="userSpaceOnUse"><stop stop-color="#05668D"/><stop offset=".391" stop-color="#028090"/><stop offset=".62" stop-color="#00A896"/><stop offset="1" stop-color="#02C39A"/></linearGradient><linearGradient id="D" x1="44.428" y1="-14.98" x2="44.428" y2="76.829" gradientUnits="userSpaceOnUse"><stop stop-color="#046C8E"/><stop offset="1" stop-color="#02C19A"/></linearGradient><linearGradient id="c" x1="-207.24" y1="43.532" x2="1618.2" y2="-4.572" gradientUnits="userSpaceOnUse"><stop stop-color="#05668D"/><stop offset=".391" stop-color="#028090"/><stop offset=".62" stop-color="#00A896"/><stop offset="1" stop-color="#02C39A"/></linearGradient><linearGradient id="d" x1="-756.124" y1="51.611" x2="3049.63" y2="-239.902" gradientUnits="userSpaceOnUse"><stop stop-color="#05668D"/><stop offset=".391" stop-color="#028090"/><stop offset=".62" stop-color="#00A896"/><stop offset="1" stop-color="#02C39A"/></linearGradient><linearGradient id="e" x1="-1421.45" y1="52.989" x2="4493.38" y2="-679.605" gradientUnits="userSpaceOnUse"><stop stop-color="#05668D"/><stop offset=".391" stop-color="#028090"/><stop offset=".62" stop-color="#00A896"/><stop offset="1" stop-color="#02C39A"/></linearGradient><linearGradient id="f" x1="-501.007" y1="43.532" x2="1324.39" y2="-4.569" gradientUnits="userSpaceOnUse"><stop stop-color="#05668D"/><stop offset=".391" stop-color="#028090"/><stop offset=".62" stop-color="#00A896"/><stop offset="1" stop-color="#02C39A"/></linearGradient><linearGradient id="g" x1="-623.292" y1="42.974" x2="1138.53" y2="-2.416" gradientUnits="userSpaceOnUse"><stop stop-color="#05668D"/><stop offset=".391" stop-color="#028090"/><stop offset=".62" stop-color="#00A896"/><stop offset="1" stop-color="#02C39A"/></linearGradient><linearGradient id="h" x1="-845.945" y1="50.725" x2="1088.67" y2="-19.357" gradientUnits="userSpaceOnUse"><stop stop-color="#05668D"/><stop offset=".391" stop-color="#028090"/><stop offset=".62" stop-color="#00A896"/><stop offset="1" stop-color="#02C39A"/></linearGradient><linearGradient id="i" x1="-886.318" y1="42.974" x2="875.507" y2="-2.416" gradientUnits="userSpaceOnUse"><stop stop-color="#05668D"/><stop offset=".391" stop-color="#028090"/><stop offset=".62" stop-color="#00A896"/><stop offset="1" stop-color="#02C39A"/></linearGradient><linearGradient id="j" x1="-982.946" y1="42.974" x2="713.641" y2=".886" gradientUnits="userSpaceOnUse"><stop stop-color="#05668D"/><stop offset=".391" stop-color="#028090"/><stop offset=".62" stop-color="#00A896"/><stop offset="1" stop-color="#02C39A"/></linearGradient><linearGradient id="k" x1="-2078.95" y1="43.532" x2="1024.2" y2="-95.662" gradientUnits="userSpaceOnUse"><stop stop-color="#05668D"/><stop offset=".391" stop-color="#028090"/><stop offset=".62" stop-color="#00A896"/><stop offset="1" stop-color="#02C39A"/></linearGradient><linearGradient id="l" x1="-1314.42" y1="43.532" x2="510.977" y2="-4.569" gradientUnits="userSpaceOnUse"><stop stop-color="#05668D"/><stop offset=".391" stop-color="#028090"/><stop offset=".62" stop-color="#00A896"/><stop offset="1" stop-color="#02C39A"/></linearGradient><linearGradient id="m" x1="-4813.81" y1="52.989" x2="1101.02" y2="-679.605" gradientUnits="userSpaceOnUse"><stop stop-color="#05668D"/><stop offset=".391" stop-color="#028090"/><stop offset=".62" stop-color="#00A896"/><stop offset="1" stop-color="#02C39A"/></linearGradient><linearGradient id="n" x1="-1532.89" y1="43.532" x2="292.57" y2="-4.572" gradientUnits="userSpaceOnUse"><stop stop-color="#05668D"/><stop offset=".391" stop-color="#028090"/><stop offset=".62" stop-color="#00A896"/><stop offset="1" stop-color="#02C39A"/></linearGradient><linearGradient id="o" x1="-1537.37" y1="31.724" x2="134.741" y2="-23.685" gradientUnits="userSpaceOnUse"><stop stop-color="#05668D"/><stop offset=".391" stop-color="#028090"/><stop offset=".62" stop-color="#00A896"/><stop offset="1" stop-color="#02C39A"/></linearGradient><linearGradient id="b" x1="-6.886" y1="50.358" x2="1266.68" y2="19.141" gradientUnits="userSpaceOnUse"><stop stop-color="#05668D"/><stop offset=".391" stop-color="#028090"/><stop offset=".62" stop-color="#00A896"/><stop offset="1" stop-color="#02C39A"/></linearGradient><linearGradient id="q" x1="-207.24" y1="43.532" x2="1618.2" y2="-4.572" gradientUnits="userSpaceOnUse"><stop stop-color="#05668D"/><stop offset=".391" stop-color="#028090"/><stop offset=".62" stop-color="#00A896"/><stop offset="1" stop-color="#02C39A"/></linearGradient><linearGradient id="r" x1="-756.124" y1="51.611" x2="3049.63" y2="-239.902" gradientUnits="userSpaceOnUse"><stop stop-color="#05668D"/><stop offset=".391" stop-color="#028090"/><stop offset=".62" stop-color="#00A896"/><stop offset="1" stop-color="#02C39A"/></linearGradient><linearGradient id="s" x1="-1421.45" y1="52.989" x2="4493.38" y2="-679.605" gradientUnits="userSpaceOnUse"><stop stop-color="#05668D"/><stop offset=".391" stop-color="#028090"/><stop offset=".62" stop-color="#00A896"/><stop offset="1" stop-color="#02C39A"/></linearGradient><linearGradient id="t" x1="-501.007" y1="43.532" x2="1324.39" y2="-4.569" gradientUnits="userSpaceOnUse"><stop stop-color="#05668D"/><stop offset=".391" stop-color="#028090"/><stop offset=".62" stop-color="#00A896"/><stop offset="1" stop-color="#02C39A"/></linearGradient><linearGradient id="u" x1="-623.292" y1="42.974" x2="1138.53" y2="-2.416" gradientUnits="userSpaceOnUse"><stop stop-color="#05668D"/><stop offset=".391" stop-color="#028090"/><stop offset=".62" stop-color="#00A896"/><stop offset="1" stop-color="#02C39A"/></linearGradient><linearGradient id="v" x1="-845.945" y1="50.725" x2="1088.67" y2="-19.357" gradientUnits="userSpaceOnUse"><stop stop-color="#05668D"/><stop offset=".391" stop-color="#028090"/><stop offset=".62" stop-color="#00A896"/><stop offset="1" stop-color="#02C39A"/></linearGradient><linearGradient id="w" x1="-886.318" y1="42.974" x2="875.507" y2="-2.416" gradientUnits="userSpaceOnUse"><stop stop-color="#05668D"/><stop offset=".391" stop-color="#028090"/><stop offset=".62" stop-color="#00A896"/><stop offset="1" stop-color="#02C39A"/></linearGradient><linearGradient id="x" x1="-982.946" y1="42.974" x2="713.641" y2=".886" gradientUnits="userSpaceOnUse"><stop stop-color="#05668D"/><stop offset=".391" stop-color="#028090"/><stop offset=".62" stop-color="#00A896"/><stop offset="1" stop-color="#02C39A"/></linearGradient><linearGradient id="y" x1="-2078.95" y1="43.532" x2="1024.2" y2="-95.662" gradientUnits="userSpaceOnUse"><stop stop-color="#05668D"/><stop offset=".391" stop-color="#028090"/><stop offset=".62" stop-color="#00A896"/><stop offset="1" stop-color="#02C39A"/></linearGradient><linearGradient id="z" x1="-1314.42" y1="43.532" x2="510.977" y2="-4.569" gradientUnits="userSpaceOnUse"><stop stop-color="#05668D"/><stop offset=".391" stop-color="#028090"/><stop offset=".62" stop-color="#00A896"/><stop offset="1" stop-color="#02C39A"/></linearGradient><linearGradient id="A" x1="-4813.81" y1="52.989" x2="1101.02" y2="-679.605" gradientUnits="userSpaceOnUse"><stop stop-color="#05668D"/><stop offset=".391" stop-color="#028090"/><stop offset=".62" stop-color="#00A896"/><stop offset="1" stop-color="#02C39A"/></linearGradient><linearGradient id="B" x1="-1532.89" y1="43.532" x2="292.57" y2="-4.572" gradientUnits="userSpaceOnUse"><stop stop-color="#05668D"/><stop offset=".391" stop-color="#028090"/><stop offset=".62" stop-color="#00A896"/><stop offset="1" stop-color="#02C39A"/></linearGradient><linearGradient id="C" x1="-1537.37" y1="31.724" x2="134.741" y2="-23.685" gradientUnits="userSpaceOnUse"><stop stop-color="#05668D"/><stop offset=".391" stop-color="#028090"/><stop offset=".62" stop-color="#00A896"/><stop offset="1" stop-color="#02C39A"/></linearGradient><radialGradient id="a" cx="0" cy="0" r="1" gradientUnits="userSpaceOnUse" gradientTransform="matrix(0 37.5002 -59.0001 0 59 37.5)"><stop stop-color="#02C39A"/><stop offset=".49" stop-color="#00A896"/><stop offset="1" stop-color="#028090"/></radialGradient></defs></svg>