<svg width="65" height="46" fill="none" xmlns="http://www.w3.org/2000/svg"><path d="M5.77 42.035C2.017 38.355 0 34.228 0 27.539 0 15.767 8.957 5.216 21.981 0l3.256 4.635C13.08 10.702 10.703 18.575 9.755 23.54c1.957-.935 4.52-1.261 7.032-1.046 6.576.561 11.76 5.543 11.76 11.734 0 3.122-1.345 6.117-3.737 8.324C22.417 44.76 19.172 46 15.788 46c-3.912 0-7.652-1.648-10.017-3.965Zm36.454 0c-3.755-3.68-5.77-7.807-5.77-14.496 0-11.772 8.956-22.323 21.98-27.539l3.256 4.635c-12.157 6.067-14.534 13.94-15.482 18.905 1.958-.935 4.52-1.261 7.032-1.046C59.816 23.055 65 28.037 65 34.228c0 3.122-1.344 6.117-3.737 8.324C58.87 44.76 55.625 46 52.241 46c-3.911 0-7.651-1.648-10.017-3.965Z" fill="url(#a)"/><defs><linearGradient id="a" x1="0" y1="0" x2="60.861" y2="50.742" gradientUnits="userSpaceOnUse"><stop stop-color="#05668D"/><stop offset=".344" stop-color="#028090"/><stop offset=".625" stop-color="#00A896"/><stop offset="1" stop-color="#02C39A"/></linearGradient></defs></svg>