<svg xmlns="http://www.w3.org/2000/svg" version="1.0" width="64" height="64" viewBox="0 0 128 128" xml:space="preserve"><g><ellipse cx="64" cy="18.75" rx="6.25" ry="18.75" fill="#fff"/><ellipse cx="64" cy="18.75" rx="6.25" ry="18.75" fill="#fff" transform="rotate(30 64 64)"/><ellipse cx="64" cy="18.75" rx="6.25" ry="18.75" fill="#e6eff3" transform="rotate(60 64 64)"/><ellipse cx="64" cy="18.75" rx="6.25" ry="18.75" fill="#cde0e8" transform="rotate(90 64 64)"/><ellipse cx="64" cy="18.75" rx="6.25" ry="18.75" fill="#b4d1dd" transform="rotate(120 64 64)"/><ellipse cx="64" cy="18.75" rx="6.25" ry="18.75" fill="#9bc2d1" transform="rotate(150 64 64)"/><ellipse cx="64" cy="18.75" rx="6.25" ry="18.75" fill="#82b2c6" transform="rotate(180 64 64)"/><ellipse cx="64" cy="18.75" rx="6.25" ry="18.75" fill="#69a3bb" transform="rotate(210 64 64)"/><ellipse cx="64" cy="18.75" rx="6.25" ry="18.75" fill="#5094af" transform="rotate(240 64 64)"/><ellipse cx="64" cy="18.75" rx="6.25" ry="18.75" fill="#3785a4" transform="rotate(270 64 64)"/><ellipse cx="64" cy="18.75" rx="6.25" ry="18.75" fill="#1e7598" transform="rotate(300 64 64)"/><ellipse cx="64" cy="18.75" rx="6.25" ry="18.75" fill="#05668d" transform="rotate(330 64 64)"/><animateTransform attributeName="transform" type="rotate" values="0 64 64;30 64 64;60 64 64;90 64 64;120 64 64;150 64 64;180 64 64;210 64 64;240 64 64;270 64 64;300 64 64;330 64 64" calcMode="discrete" dur="1440ms" repeatCount="indefinite"/></g></svg>