<svg width="49" height="57" fill="none" xmlns="http://www.w3.org/2000/svg"><path d="M23.625 13.718c-.608-3.314.96-6.725 2.846-9.023 2.08-2.536 5.65-4.481 8.7-4.695.515 3.475-.903 6.86-2.77 9.254-2.002 2.573-5.444 4.568-8.776 4.464Zm17.89 12.008c.945-2.633 2.814-5.002 5.715-6.6-2.932-3.659-7.046-5.782-10.93-5.782-5.139 0-7.31 2.448-10.88 2.448-3.676 0-6.466-2.448-10.916-2.448-4.364 0-9.01 2.66-11.957 7.203C1.464 22.226.73 24.312.33 26.637c-1.11 6.518.548 15.008 5.497 22.547 2.406 3.66 5.612 7.78 9.802 7.816 3.732.036 4.792-2.387 9.843-2.413 5.06-.027 6.019 2.438 9.747 2.401 4.19-.035 7.573-4.595 9.98-8.253 1.713-2.624 2.361-3.95 3.693-6.918-6.774-2.555-9.56-10.018-7.376-16.091Z" fill="#000"/></svg>