<svg width="22" height="16" fill="none" xmlns="http://www.w3.org/2000/svg"><path d="M22 1.889a9.9 9.9 0 0 1-2.591.637c.935-.5 1.647-1.29 1.982-2.234a9.877 9.877 0 0 1-2.866.982C17.701.491 16.525 0 15.23 0c-2.488 0-4.513 1.812-4.513 4.038 0 .315.034.622.12.922-3.75-.17-7.079-1.774-9.301-4.223a3.729 3.729 0 0 0-.61 2.035c0 1.397.799 2.633 2.008 3.362a4.985 4.985 0 0 1-2.042-.506v.046c0 1.957 1.553 3.593 3.621 3.961a5.05 5.05 0 0 1-2.042.077c.575 1.605 2.24 2.772 4.213 2.802-1.544 1.083-3.492 1.728-5.603 1.728-.36 0-.72-.016-1.081-.054C2 15.332 4.367 16 6.916 16 15.22 16 19.76 9.843 19.76 4.507c0-.177 0-.353-.009-.522A8.645 8.645 0 0 0 22 1.889Z" fill="#fff"/></svg>