<svg width="80" height="55" fill="none" xmlns="http://www.w3.org/2000/svg"><path d="M5.177 51.131V39.286H3.2V51.13h1.977ZM6.388 47.183c0 2.42 1.653 4.14 4.165 4.14s4.165-1.72 4.165-4.14-1.653-4.14-4.165-4.14-4.165 1.72-4.165 4.14Zm1.993 0c0-1.417.86-2.404 2.172-2.404 1.313 0 2.172.987 2.172 2.404 0 1.4-.86 2.404-2.172 2.404-1.313 0-2.172-1.003-2.172-2.404ZM15.383 47.023c0 2.293 1.508 3.949 3.76 3.949 1.168 0 2.172-.462 2.675-1.226v1.337c0 1.29-.827 2.15-2.205 2.15-1.231 0-2.074-.59-2.188-1.624h-1.993C15.692 53.663 17.296 55 19.5 55c2.593 0 4.247-1.672 4.247-4.267v-7.467h-1.75l-.114 1.067c-.487-.828-1.491-1.322-2.675-1.322-2.285 0-3.825 1.704-3.825 4.012Zm2.01-.047c0-1.306.843-2.261 2.09-2.261 1.362 0 2.27.971 2.27 2.26 0 1.306-.908 2.31-2.27 2.31-1.23 0-2.09-.988-2.09-2.31ZM24.725 47.183c0 2.42 1.653 4.14 4.165 4.14 2.513 0 4.166-1.72 4.166-4.14s-1.653-4.14-4.166-4.14c-2.512 0-4.165 1.72-4.165 4.14Zm1.994 0c0-1.417.859-2.404 2.171-2.404 1.313 0 2.172.987 2.172 2.404 0 1.4-.859 2.404-2.172 2.404-1.312 0-2.171-1.003-2.171-2.404ZM35.196 41.658a1.17 1.17 0 0 0 1.183-1.162c0-.637-.535-1.147-1.183-1.147-.665 0-1.167.51-1.167 1.147 0 .652.502 1.162 1.167 1.162Zm-.989 9.473h1.977v-7.865h-1.977v7.865ZM37.917 54.777h1.928v-4.729c.503.813 1.589 1.29 2.788 1.29 2.366 0 3.776-1.783 3.744-4.235-.049-2.468-1.491-4.076-3.76-4.076-1.216 0-2.318.526-2.804 1.433l-.114-1.194h-1.782v11.511Zm2.01-7.578c0-1.417.875-2.405 2.252-2.405 1.378 0 2.204 1.004 2.204 2.405 0 1.4-.826 2.388-2.204 2.388-1.377 0-2.253-.971-2.253-2.388ZM46.88 48.775c.064 1.56 1.296 2.563 3.208 2.563 1.88 0 3.16-.987 3.16-2.515 0-1.13-.712-1.895-2.025-2.214l-1.41-.334c-.6-.16-1.005-.366-1.005-.875 0-.542.437-.924 1.15-.924.746 0 1.232.414 1.232 1.099h1.8c-.065-1.56-1.249-2.548-2.983-2.548-1.718 0-2.998.987-2.998 2.484 0 1.019.6 1.863 2.14 2.26l1.393.351c.519.143.843.382.843.828 0 .62-.6.907-1.33.907-.874 0-1.377-.398-1.377-1.082H46.88ZM57.35 51.338c1.086 0 2.123-.494 2.593-1.226l.13 1.02h1.848v-7.866h-1.978v4.124c0 1.417-.55 2.213-1.847 2.213-1.005 0-1.702-.478-1.702-2.102v-4.235h-1.977v4.92c0 1.878 1.037 3.152 2.933 3.152ZM65.643 51.131V46.61c0-1.273.762-1.878 1.702-1.878s1.556.589 1.556 1.703v4.697h1.929v-4.506c0-1.29.745-1.894 1.685-1.894.957 0 1.573.589 1.573 1.703v4.697H76V45.99c0-1.815-1.021-2.962-2.966-2.962-1.216 0-2.172.573-2.56 1.497-.438-.924-1.314-1.497-2.643-1.497-.94 0-1.782.43-2.252 1.13l-.098-.89h-1.815v7.864h1.977ZM34.79 28.563c-2.605 4.604-7.91 6.794-13.272 6.794H0c22.4-2.75 38-13.75 40-29.071 2 15.321 17.6 26.321 40 29.071H58.482c-5.363 0-10.667-2.19-13.272-6.794-2.82-4.984-4.615-10.622-5.21-16.777-.595 6.155-2.39 11.793-5.21 16.776Z" fill="#fff"/><path d="M22.484 26.935a48.471 48.471 0 0 1-3.962 1.956 22.6 22.6 0 0 1 2.666-18.604c2-3.108 4.731-5.672 7.953-7.466a22.317 22.317 0 0 1 21.116-.323 22.431 22.431 0 0 1 8.176 7.22 22.566 22.566 0 0 1 3.823 10.238c.341 3.007.074 6.046-.778 8.935a48.472 48.472 0 0 1-3.962-1.956 18.225 18.225 0 0 0-2.651-14.743 18.09 18.09 0 0 0-6.593-5.821 17.997 17.997 0 0 0-17.028.26 18.097 18.097 0 0 0-6.414 6.02 18.2 18.2 0 0 0-2.346 14.284Z" fill="#fff"/></svg>