<svg width="21" height="35" fill="none" xmlns="http://www.w3.org/2000/svg"><path d="M.486 11.924c.31.317.732.495 1.172.495.439 0 .86-.178 1.171-.495l6.013-6.142v27.524c0 .45.175.88.486 1.198.31.318.732.496 1.172.496.44 0 .861-.178 1.172-.496.311-.318.486-.748.486-1.197V5.787l6.01 6.137a1.656 1.656 0 0 0 1.174.496c.44 0 .861-.179 1.172-.496.311-.318.486-.749.486-1.198 0-.45-.175-.88-.486-1.198L11.672.496A1.653 1.653 0 0 0 10.5 0a1.626 1.626 0 0 0-1.172.496L.486 9.528A1.697 1.697 0 0 0 0 10.726a1.725 1.725 0 0 0 .486 1.198Z" fill="#fff"/></svg>