<svg width="80" height="15" fill="none" xmlns="http://www.w3.org/2000/svg"><g clip-path="url(#a)" fill="#fff"><path d="M19.283.637h1.997v10.895h3.287v1.816h-5.284V.637ZM28.34 13.53c-.98 0-1.73-.28-2.25-.836-.521-.557-.782-1.344-.782-2.36V3.652c0-1.017.26-1.804.781-2.36.52-.558 1.271-.836 2.252-.836.98 0 1.73.278 2.251.835.52.557.78 1.344.78 2.36v6.683c0 1.016-.26 1.803-.78 2.36-.52.557-1.27.835-2.251.835Zm0-1.816c.69 0 1.036-.418 1.036-1.253V3.524c0-.835-.345-1.252-1.035-1.252s-1.035.417-1.035 1.252v6.937c0 .835.345 1.252 1.035 1.252ZM35.556 13.53c-.968 0-1.707-.273-2.215-.818-.508-.557-.763-1.35-.763-2.378V3.652c0-1.03.255-1.816.763-2.36.508-.558 1.247-.836 2.215-.836.969 0 1.707.278 2.215.835.509.545.763 1.332.763 2.36v1.09h-1.888V3.524c0-.835-.345-1.252-1.035-1.252s-1.035.417-1.035 1.252v6.955c0 .823.345 1.235 1.035 1.235s1.035-.412 1.035-1.235V7.99h-.999V6.175h2.887v4.159c0 1.029-.254 1.821-.763 2.378-.508.545-1.246.817-2.215.817ZM42.703 13.53c-.98 0-1.73-.28-2.251-.836-.52-.557-.78-1.344-.78-2.36V3.652c0-1.017.26-1.804.78-2.36.52-.558 1.27-.836 2.251-.836.981 0 1.731.278 2.252.835.52.557.78 1.344.78 2.36v6.683c0 1.016-.26 1.803-.78 2.36-.52.557-1.271.835-2.252.835Zm0-1.816c.69 0 1.035-.418 1.035-1.253V3.524c0-.835-.345-1.252-1.035-1.252s-1.035.417-1.035 1.252v6.937c0 .835.346 1.252 1.035 1.252ZM47.09.637h1.998v12.71H47.09V.637ZM50.584.637h2.941c.992 0 1.737.267 2.233.8.497.532.745 1.313.745 2.341v1.253c0 1.03-.248 1.81-.745 2.343-.496.532-1.24.799-2.233.799h-.944v5.175h-1.998V.637Zm2.941 5.72c.327 0 .569-.091.727-.273.169-.181.253-.49.253-.926V3.651c0-.435-.084-.744-.254-.926-.157-.181-.399-.272-.726-.272h-.944v3.904h.944ZM60.255 13.53c-.968 0-1.7-.273-2.197-.818-.496-.557-.745-1.35-.745-2.378v-.727h1.889v.872c0 .823.345 1.235 1.035 1.235.339 0 .593-.097.762-.291.182-.206.273-.533.273-.98 0-.533-.121-1-.363-1.399-.242-.411-.69-.901-1.344-1.47-.823-.727-1.398-1.38-1.725-1.961-.327-.594-.49-1.26-.49-1.998 0-1.004.254-1.78.762-2.324.509-.557 1.247-.835 2.216-.835.956 0 1.676.278 2.16.835.497.545.745 1.332.745 2.36v.527h-1.889v-.654c0-.435-.084-.75-.254-.944-.169-.206-.417-.308-.744-.308-.666 0-.998.405-.998 1.216 0 .46.12.89.363 1.29.254.399.708.883 1.361 1.452.835.726 1.41 1.386 1.725 1.98.315.592.473 1.288.473 2.087 0 1.041-.261 1.84-.782 2.397-.508.557-1.252.835-2.233.835ZM67.32 13.53c-.968 0-1.707-.273-2.215-.818-.509-.557-.763-1.35-.763-2.379V.637h1.998v9.842c0 .435.084.75.254.944.181.194.436.29.762.29.327 0 .575-.096.745-.29.181-.194.272-.509.272-.944V.637h1.924v9.696c0 1.03-.254 1.822-.762 2.379-.508.545-1.247.817-2.215.817ZM71.72.637h2.851l1.271 9.097h.036L77.15.637H80v12.71h-1.888V3.725h-.036l-1.453 9.623h-1.671l-1.453-9.623h-.035v9.623H71.72V.637ZM0 13.348a4.45 4.45 0 1 0 0-8.899v3.115a1.335 1.335 0 0 1 0 2.67v3.114Z"/><path d="M14.83 5.932c-.76-.24-1.57-.37-2.41-.37a7.971 7.971 0 0 0-7.866 9.269h4.953a3.189 3.189 0 0 1 5.323-3.386V5.932Z"/><path d="M.782 0a6.675 6.675 0 0 0 13.266 0H9.276a2.003 2.003 0 0 1-3.721 0H.782Z"/></g><defs><clipPath id="a"><path fill="#fff" d="M0 0h80v15H0z"/></clipPath></defs></svg>