<svg width="80" height="30" fill="none" xmlns="http://www.w3.org/2000/svg"><g clip-path="url(#a)"><mask id="b" style="mask-type:luminance" maskUnits="userSpaceOnUse" x="0" y="0" width="80" height="30"><path d="M80 0H0v30h80V0Z" fill="#fff"/></mask><g mask="url(#b)" fill="#fff"><path d="M36.675 26.428h2.083v-7.735h-2.083v7.735Zm0-8.942h2.083v-1.84h-2.083v1.84ZM40.1 28.962h2.084v-3.408h.03c.445.663 1.165 1.1 2.268 1.1 2.022 0 3.4-1.583 3.4-4.086 0-2.413-1.332-4.086-3.415-4.086-1.073 0-1.808.497-2.313 1.176h-.046v-.965H40.1v10.269Zm3.938-4.011c-1.241 0-1.9-.92-1.9-2.323 0-1.387.521-2.488 1.823-2.488 1.287 0 1.808 1.026 1.808 2.488 0 1.463-.674 2.323-1.731 2.323ZM52.039 26.655c1.96 0 3.308-.935 3.308-2.488 0-1.81-1.455-2.172-2.772-2.443-1.119-.226-2.16-.287-2.16-.95 0-.558.536-.86 1.348-.86.888 0 1.425.302 1.516 1.131h1.885c-.154-1.553-1.302-2.563-3.37-2.563-1.793 0-3.202.799-3.202 2.473 0 1.689 1.379 2.066 2.788 2.337 1.072.211 2.068.286 2.068 1.025 0 .543-.52.89-1.44.89-.934 0-1.578-.392-1.716-1.282h-1.93c.123 1.644 1.394 2.73 3.677 2.73ZM63.257 26.429v-7.736h-2.083v4.463c0 1.026-.597 1.75-1.578 1.75-.888 0-1.302-.498-1.302-1.403v-4.81h-2.068v5.157c0 1.689.98 2.79 2.727 2.79 1.103 0 1.715-.407 2.252-1.116h.046v.905h2.006ZM64.605 26.428h2.083v-4.493c0-1.026.567-1.689 1.41-1.689.766 0 1.21.452 1.21 1.327v4.855h2.083v-4.493c0-1.026.536-1.689 1.41-1.689.766 0 1.21.452 1.21 1.327v4.855h2.083v-5.202c0-1.689-.934-2.744-2.589-2.744-.995 0-1.823.512-2.359 1.357h-.03c-.383-.814-1.18-1.357-2.176-1.357-1.087 0-1.853.543-2.282 1.251h-.046v-1.04h-2.007v7.735ZM36.706 13.179h2.083V2.397h-2.083V13.18ZM43.883 13.405c2.436 0 4.106-1.78 4.106-4.086 0-2.307-1.67-4.087-4.106-4.087-2.435 0-4.105 1.78-4.105 4.087 0 2.307 1.67 4.086 4.105 4.086Zm0-1.568c-1.287 0-1.991-1.01-1.991-2.518 0-1.508.704-2.534 1.991-2.534 1.272 0 1.992 1.026 1.992 2.534 0 1.508-.72 2.518-1.992 2.518ZM52.419 15.818c1.164 0 2.175-.271 2.834-.875.582-.527.934-1.266.934-2.352V5.443h-2.006v.815h-.03c-.476-.649-1.196-1.026-2.176-1.026-1.992 0-3.401 1.478-3.401 3.785 0 2.337 1.716 3.694 3.462 3.694.996 0 1.593-.392 2.053-.904h.046v.844c0 1.056-.567 1.614-1.747 1.614-.965 0-1.409-.377-1.577-.86h-2.069c.215 1.508 1.532 2.413 3.677 2.413Zm-.03-4.75c-1.073 0-1.778-.77-1.778-2.081 0-1.297.705-2.111 1.762-2.111 1.256 0 1.869.965 1.869 2.096 0 1.146-.536 2.096-1.854 2.096ZM61.251 13.405c2.436 0 4.106-1.78 4.106-4.086 0-2.307-1.67-4.087-4.106-4.087-2.435 0-4.105 1.78-4.105 4.087 0 2.307 1.67 4.086 4.105 4.086Zm0-1.568c-1.286 0-1.991-1.01-1.991-2.518 0-1.508.705-2.534 1.991-2.534 1.272 0 1.992 1.026 1.992 2.534 0 1.508-.72 2.518-1.992 2.518ZM67.183 10.223h9.007V8.46h-9.007v1.764ZM76.851 17.379c0-.347.286-.629.639-.629h1.276c.352 0 .638.282.638.629a.633.633 0 0 1-.638.628H77.49a.633.633 0 0 1-.639-.628Z"/><path fill-rule="evenodd" clip-rule="evenodd" d="M15.636 0c8.415 0 15.238 6.716 15.238 15 0 8.284-6.823 15-15.238 15C7.22 30 .397 23.284.397 15c0-8.284 6.823-15 15.239-15Zm-.551 1.122c-1.739.241-3.394 1.616-4.679 3.916a15.499 15.499 0 0 0-1.002 2.2 25.876 25.876 0 0 1 5.68-.727V1.122ZM8.116 7.598c.365-1.126.81-2.162 1.325-3.083.637-1.14 1.393-2.124 2.245-2.88-4.632 1.324-8.283 4.918-9.628 9.477.768-.839 1.768-1.583 2.927-2.21a17.742 17.742 0 0 1 3.131-1.304ZM7.75 8.866a24.727 24.727 0 0 0-.738 5.592H1.538c.244-1.712 1.641-3.34 3.977-4.606a15.99 15.99 0 0 1 2.235-.986Zm.364 5.592c.046-2.164.362-4.195.886-5.99 1.823-.516 3.887-.827 6.085-.872v2.342a8.045 8.045 0 0 1-4.592 4.52H8.114Zm-1.102 1.084H1.538c.244 1.711 1.641 3.34 3.977 4.606a16 16 0 0 0 2.235.986 24.727 24.727 0 0 1-.738-5.592ZM9 21.532c-.524-1.795-.84-3.826-.886-5.99h2.379a8.045 8.045 0 0 1 4.592 4.52v2.342c-2.198-.045-4.262-.356-6.085-.872Zm-.884.87a17.738 17.738 0 0 1-3.131-1.304c-1.159-.627-2.159-1.371-2.927-2.21 1.345 4.56 4.996 8.153 9.628 9.477-.852-.756-1.608-1.74-2.245-2.88-.515-.921-.96-1.957-1.325-3.083Zm6.969 6.476c-1.739-.241-3.394-1.616-4.679-3.916a15.502 15.502 0 0 1-1.002-2.2 25.88 25.88 0 0 0 5.68.727v5.389Zm4.5-.513c.852-.756 1.608-1.74 2.245-2.88.515-.921.96-1.957 1.325-3.083a17.738 17.738 0 0 0 3.131-1.304c1.159-.627 2.159-1.371 2.927-2.21-1.345 4.56-4.996 8.153-9.628 9.477Zm2.282-5.603c-.293.796-.63 1.533-1.002 2.2-1.285 2.3-2.94 3.675-4.679 3.916v-5.39a25.88 25.88 0 0 0 5.681-.726Zm1.654-1.628c.808-.288 1.557-.62 2.235-.986 2.336-1.265 3.733-2.895 3.977-4.606H24.26a24.727 24.727 0 0 1-.738 5.592Zm-.364-5.592c-.045 2.164-.362 4.195-.885 5.99-1.824.516-3.887.827-6.086.872v-2.34a8.045 8.045 0 0 1 4.593-4.522h2.378Zm1.102-1.084h5.474c-.244-1.712-1.641-3.34-3.977-4.606a15.988 15.988 0 0 0-2.235-.986c.439 1.72.698 3.609.738 5.592Zm-1.987-5.99c.523 1.795.84 3.826.885 5.99H20.78a8.045 8.045 0 0 1-4.593-4.522v-2.34c2.198.045 4.262.356 6.086.872Zm.883-.87c1.144.359 2.196.798 3.131 1.304 1.159.627 2.159 1.371 2.927 2.21-1.345-4.56-4.996-8.153-9.628-9.477.852.756 1.608 1.74 2.245 2.88.515.921.96 1.957 1.325 3.083Zm-6.969-6.476c1.739.241 3.394 1.616 4.679 3.916a15.5 15.5 0 0 1 1.002 2.2 25.876 25.876 0 0 0-5.68-.727V1.122Z"/></g></g><defs><clipPath id="a"><path fill="#fff" d="M0 0h80v30H0z"/></clipPath></defs></svg>