<svg width="80" height="18" fill="none" xmlns="http://www.w3.org/2000/svg"><path d="M19.628 4.838h2.71l-1.518 7.087c-.279 1.343-.81 2.111-1.617 2.656a4.88 4.88 0 0 1-2.693.633c-1.792 0-3.512-.739-3.683-2.533h2.727c.086.422.48.663 1.08.663.811 0 1.184-.481 1.351-1.237l.163-.781h-.06a2.659 2.659 0 0 1-1.883.844c-1.577 0-2.83-1.237-2.804-3.048.035-2.11 1.433-4.508 3.778-4.508.445-.03.889.067 1.28.278.39.21.711.527.925.912h.047l.197-.966Zm-2.329 5.352c1.043 0 1.621-1.182 1.639-2.199 0-.68-.27-1.376-1.068-1.376-1.09 0-1.643 1.195-1.66 2.22 0 .693.27 1.355 1.068 1.355m30.448.228c0 .452-.395.634-.914.634-.858 0-1.145-.423-1.15-1.014h-2.697c-.047 2.204 1.952 2.748 3.727 2.748 2.269 0 3.74-.966 3.77-2.895 0-1.541-1.334-2.01-2.646-2.31-1.008-.227-1.45-.392-1.446-.768.005-.375.455-.527.897-.527.553 0 .93.194.969.692h2.62c-.03-1.84-1.715-2.38-3.43-2.38-2.085 0-3.71.932-3.736 2.697 0 1.388.952 1.9 2.389 2.262.922.24 1.655.317 1.647.861Zm20.04-4.436h-.048a1.891 1.891 0 0 0-.73-1.032 1.943 1.943 0 0 0-1.226-.353c-1.166 0-1.878.57-2.551 1.431h-.047l.249-1.19h-2.728l-1.634 7.691h2.852l.858-4.15c.197-.903.664-1.536 1.372-1.536.708 0 .802.557.656 1.237l-.944 4.45h2.852l.858-4.15c.197-.963.665-1.537 1.372-1.537.708 0 .802.528.657 1.237l-.944 4.45h2.852l1.02-4.573c.43-1.929-.227-3.377-2.11-3.377a3.17 3.17 0 0 0-1.5.37c-.46.245-.851.6-1.137 1.032ZM.522 12.529H3.47L5.746 1.743H2.805L.523 12.53Zm8.869-7.92c1.99 0 3.89 1.073 3.86 3.5-.027 2.655-1.862 4.644-4.667 4.644-1.93 0-3.86-1.056-3.825-3.47C4.807 6.69 6.617 4.61 9.392 4.61Zm-.725 6.261c1.256 0 1.715-1.794 1.715-2.85 0-.755-.236-1.494-1.063-1.494-1.244 0-1.669 1.9-1.669 2.88 0 .784.223 1.464 1.034 1.464M6.728 1.743 6.3 3.901h24.74l.428-2.158H6.728ZM26.627 4.61c1.99 0 3.89 1.072 3.86 3.5-.026 2.655-1.866 4.643-4.67 4.643-1.93 0-3.86-1.056-3.822-3.47.06-2.592 1.87-4.673 4.632-4.673Zm-.712 6.26c1.256 0 1.715-1.794 1.715-2.85 0-.755-.24-1.494-1.068-1.494-1.239 0-1.668 1.9-1.668 2.88 0 .784.223 1.464 1.038 1.464m6.548-9.127-.428 2.158h2.847l.429-2.158H32.48ZM30.2 12.53h2.852l1.633-7.691h-2.868l-1.617 7.691Zm9.1.258a2.481 2.481 0 0 1-1.31-.27 2.433 2.433 0 0 1-.972-.908h-.047l-.857 3.892h-2.886l2.315-10.663h2.71l-.214 1.025c.283-.378.65-.69 1.072-.909a3.2 3.2 0 0 1 1.368-.357c1.715 0 2.723 1.448 2.693 3.33-.038 2.369-1.286 4.86-3.89 4.86h.018Zm-.112-6.012c-1.102 0-1.78 1.39-1.796 2.457 0 .743.265 1.57 1.17 1.57 1.18 0 1.664-1.536 1.677-2.562 0-.696-.206-1.465-1.05-1.465Zm16.49 4.543h.047l-.25 1.22h2.71l1.635-7.692h-2.848l-.909 4.297c-.184.891-.742 1.36-1.445 1.36-.703 0-.858-.65-.716-1.33l.922-4.327h-2.848l-1.008 4.75c-.428 2.068.55 3.182 2.188 3.182a2.959 2.959 0 0 0 1.46-.401 2.904 2.904 0 0 0 1.061-1.068v.009Zm15.296 4.22.429-2.156H37.583l-.428 2.157h33.818Z" fill="#fff"/><path d="M74.039 6.948a.216.216 0 0 1-.188-.145.208.208 0 0 1-.01-.083 2.645 2.645 0 0 0-.716-2.074 2.725 2.725 0 0 0-.932-.643 2.763 2.763 0 0 0-1.117-.212.216.216 0 0 1-.152-.062.21.21 0 0 1 .152-.36c.103.006.206.006.309 0a3.313 3.313 0 0 0 2.006-.958c.536-.54.863-1.246.927-1.997a.21.21 0 0 1 .068-.139.217.217 0 0 1 .146-.056.217.217 0 0 1 .188.146.208.208 0 0 1 .01.082 2.646 2.646 0 0 0 .715 2.073c.26.277.577.496.93.644.353.147.733.22 1.116.213.057 0 .112.022.152.062a.21.21 0 0 1 0 .298.217.217 0 0 1-.152.062 3.335 3.335 0 0 0-2.193.868 3.234 3.234 0 0 0-1.044 2.087.21.21 0 0 1-.069.139.217.217 0 0 1-.146.055Z" fill="#fff"/></svg>