<svg width="80" height="39" fill="none" xmlns="http://www.w3.org/2000/svg"><path d="m19.198 19.133.172-.036h14.365l5.397 5.379H24.56l-5.361-5.343ZM14.573 19.096H0l5.398 5.38h9.175v-5.38ZM44.148 3.644h2.239v6.932h3.844v1.878h-6.083v-8.81ZM54.295 12.643c-.75 0-1.407-.134-1.973-.403-.565-.277-1.003-.655-1.315-1.135-.303-.487-.455-1.046-.455-1.676 0-.63.151-1.185.455-1.663.312-.488.75-.866 1.315-1.135.566-.277 1.223-.416 1.973-.416s1.409.139 1.973.416c.565.269 1 .647 1.303 1.135.312.478.468 1.033.468 1.663 0 .63-.156 1.19-.468 1.676-.304.48-.738.857-1.303 1.135-.564.269-1.222.403-1.973.403Zm0-1.727c.447 0 .801-.13 1.063-.39.27-.27.404-.635.404-1.097 0-.462-.135-.823-.404-1.084-.261-.269-.616-.403-1.063-.403-.447 0-.805.134-1.075.403-.261.26-.392.622-.392 1.084 0 .462.131.828.392 1.097.27.26.629.39 1.075.39ZM62.22 15.353c-.405 0-.814-.038-1.227-.114a5.042 5.042 0 0 1-1.05-.302v-1.538c.666.286 1.425.429 2.277.429.615 0 1.058-.126 1.327-.378.279-.252.418-.622.418-1.11v-.365c-.245.21-.548.374-.91.492a3.593 3.593 0 0 1-1.139.176c-.64 0-1.206-.134-1.694-.403a2.928 2.928 0 0 1-1.152-1.135c-.27-.487-.404-1.046-.404-1.676 0-.638.135-1.201.404-1.689A2.76 2.76 0 0 1 60.21 6.62c.489-.27 1.05-.404 1.682-.404.869 0 1.585.265 2.15.794v-.605h2.15v5.634c0 1.05-.325 1.865-.974 2.445-.641.58-1.64.87-2.997.87Zm.252-4.424c.346 0 .654-.088.924-.265.27-.176.46-.411.569-.705v-1.06a1.42 1.42 0 0 0-.582-.692 1.626 1.626 0 0 0-.91-.265c-.455 0-.822.134-1.1.403-.279.26-.418.618-.418 1.072 0 .462.14.831.417 1.109.279.269.646.403 1.1.403ZM70.499 12.643c-.75 0-1.409-.134-1.973-.403-.565-.277-1.004-.655-1.316-1.135-.303-.487-.455-1.046-.455-1.676 0-.63.152-1.185.456-1.663.311-.488.75-.866 1.315-1.135.564-.277 1.222-.416 1.973-.416.75 0 1.407.139 1.973.416.565.269.999.647 1.302 1.135.312.478.468 1.033.468 1.663 0 .63-.156 1.19-.468 1.676-.303.48-.737.857-1.302 1.135-.566.269-1.223.403-1.973.403Zm0-1.727c.447 0 .8-.13 1.062-.39.27-.27.405-.635.405-1.097 0-.462-.135-.823-.405-1.084-.262-.269-.615-.403-1.062-.403-.447 0-.806.134-1.075.403-.262.26-.392.622-.392 1.084 0 .462.13.828.392 1.097.27.26.628.39 1.075.39ZM44.148 15.697h2.239v8.81h-2.239v-8.81ZM47.52 18.457h2.15v.605c.564-.53 1.282-.794 2.15-.794.632 0 1.193.134 1.681.403.49.26.869.634 1.139 1.122.27.479.404 1.038.404 1.676 0 .63-.134 1.193-.404 1.689a2.84 2.84 0 0 1-1.139 1.134c-.48.27-1.04.404-1.681.404-.405 0-.793-.063-1.164-.19a2.613 2.613 0 0 1-.91-.49v3.25H47.52v-8.81Zm3.718 4.512c.455 0 .822-.134 1.1-.403.278-.27.417-.635.417-1.097 0-.462-.139-.823-.417-1.084-.278-.269-.645-.403-1.1-.403-.337 0-.64.088-.91.265-.27.168-.464.399-.582.693v1.071c.118.294.312.53.581.706.27.168.574.252.911.252ZM58.363 24.696c-.49 0-1-.05-1.53-.152-.531-.092-.953-.226-1.265-.403v-1.626c.345.202.758.37 1.24.504.488.127.935.19 1.34.19.295 0 .51-.022.645-.064s.202-.126.202-.252a.27.27 0 0 0-.14-.239c-.083-.067-.243-.134-.48-.202a16.771 16.771 0 0 0-.796-.24c-.515-.15-.92-.306-1.215-.466a1.642 1.642 0 0 1-.657-.604c-.143-.244-.215-.551-.215-.92 0-.656.257-1.143.772-1.463.522-.327 1.235-.491 2.136-.491.439 0 .898.046 1.38.138.488.093.855.215 1.1.366v1.6c-.254-.167-.59-.306-1.012-.415a4.57 4.57 0 0 0-1.164-.164c-.287 0-.51.03-.67.088-.16.05-.24.143-.24.277 0 .126.08.223.24.29.16.067.447.151.86.252.27.067.384.097.341.089.54.142.957.302 1.252.478.295.177.502.387.62.63.126.236.19.538.19.908 0 .58-.253 1.042-.76 1.387-.497.336-1.222.504-2.174.504ZM64.62 24.696c-.834 0-1.463-.231-1.884-.694-.413-.462-.62-1.07-.62-1.827v-3.718h2.226v3.466c0 .697.316 1.046.948 1.046.287 0 .548-.067.784-.202.237-.134.43-.332.582-.592v-3.718h2.226v6.05h-2.15v-.656a2.532 2.532 0 0 1-.948.63c-.371.143-.76.215-1.164.215ZM70.022 18.457h2.061v.655a2.62 2.62 0 0 1 .873-.617 2.482 2.482 0 0 1 1.05-.227c.454 0 .817.067 1.087.201.278.135.501.336.67.605.253-.252.56-.45.923-.592.363-.143.73-.214 1.1-.214.802 0 1.37.206 1.708.617.337.404.506.988.506 1.752v3.87h-2.125v-3.555c0-.336-.063-.58-.19-.73-.126-.152-.337-.228-.632-.228-.38 0-.687.135-.923.404.008.143.013.361.013.655v3.454h-2.125v-3.643c0-.31-.055-.533-.165-.668-.109-.134-.303-.202-.581-.202-.43 0-.801.24-1.113.719v3.794h-2.137v-6.05Z" fill="#fff"/><path d="m19.37 19.097-.172.036 5.361 5.343V39H19.97l-5.398-5.38h4.588V19.098h-4.588v-4.573h4.588V0l5.398 5.38v9.144H19.16v4.572h.21ZM33.735 19.097l5.397 5.379v-4.573l-5.397-5.379v4.573ZM44.465 28.642h3.275c.927 0 1.648.218 2.163.655.522.437.784 1.084.784 1.941 0 .866-.258 1.513-.772 1.941-.514.429-1.24.643-2.175.643h-2.29v3.63h-.986v-8.81Zm3.2 4.348c.631 0 1.13-.126 1.491-.378.363-.26.544-.718.544-1.374 0-.663-.18-1.121-.544-1.373-.362-.26-.86-.391-1.492-.391h-2.213v3.516h2.213ZM51.949 28.138h.973v9.314h-.973v-9.314ZM57.144 37.641c-.81 0-1.434-.218-1.872-.655-.43-.437-.645-1.021-.645-1.752v-3.832h.974v3.882c0 1.059.552 1.588 1.657 1.588.463 0 .868-.1 1.214-.302.354-.202.67-.521.948-.958v-4.21h.974v6.05h-.949v-.907c-.547.73-1.315 1.096-2.301 1.096ZM64.274 37.641c-.396 0-.822-.059-1.277-.176-.456-.11-.81-.248-1.063-.416v-.82c.32.194.688.35 1.1.467.422.117.827.176 1.215.176.522 0 .898-.071 1.125-.214a.743.743 0 0 0 .355-.668c0-.227-.051-.403-.152-.53-.102-.134-.27-.251-.506-.352a9.038 9.038 0 0 0-1.1-.353 7.077 7.077 0 0 1-1.176-.416 1.755 1.755 0 0 1-.658-.567c-.152-.227-.227-.517-.227-.87 0-.546.218-.962.657-1.248.447-.294 1.037-.44 1.77-.44.396 0 .767.037 1.113.113.354.067.65.163.886.29v.819a3.311 3.311 0 0 0-.886-.315 4.541 4.541 0 0 0-1.075-.126c-.489 0-.86.071-1.113.214-.253.143-.379.374-.379.693 0 .219.042.387.126.504.093.118.257.227.494.328.244.092.632.21 1.163.353.759.21 1.286.458 1.58.744.304.277.456.663.456 1.16 0 .511-.202.915-.607 1.209-.396.294-1.003.441-1.82.441Z" fill="#fff"/></svg>