<svg width="80" height="42" fill="none" xmlns="http://www.w3.org/2000/svg"><path d="M2.334 24.376h2.244v11.22H2.334v-11.22ZM5.88 31.751a4.13 4.13 0 0 1 .67-2.265 4.012 4.012 0 0 1 1.79-1.503 3.922 3.922 0 0 1 2.309-.235 3.97 3.97 0 0 1 2.046 1.113c.56.57.941 1.295 1.096 2.085.154.79.076 1.61-.226 2.354a4.057 4.057 0 0 1-1.471 1.83 3.938 3.938 0 0 1-2.22.686 3.881 3.881 0 0 1-1.534-.297 3.944 3.944 0 0 1-1.301-.88 4.033 4.033 0 0 1-.865-1.324 4.096 4.096 0 0 1-.294-1.564Zm5.73 0a1.793 1.793 0 0 0-.315-.97 1.741 1.741 0 0 0-.787-.632 1.705 1.705 0 0 0-1.876.413c-.238.249-.4.564-.463.906-.063.342-.026.696.106 1.016.133.32.355.595.64.787.284.193.618.295.959.295a1.66 1.66 0 0 0 1.258-.52 1.728 1.728 0 0 0 .477-1.295ZM22.888 27.907v7.307c0 2.585-1.982 3.676-3.986 3.676a3.788 3.788 0 0 1-2.04-.42 3.882 3.882 0 0 1-1.528-1.44l1.93-1.137c.153.314.395.575.695.748.3.172.644.25.988.22a1.465 1.465 0 0 0 1.265-.388 1.552 1.552 0 0 0 .47-1.26v-.709c-.264.332-.6.594-.982.768a2.619 2.619 0 0 1-1.217.232 3.793 3.793 0 0 1-2.708-1.144 3.944 3.944 0 0 1-1.122-2.761c0-1.036.404-2.03 1.122-2.762a3.793 3.793 0 0 1 2.708-1.143c.417-.02.834.06 1.215.234.382.173.719.435.984.765v-.763l2.206-.023ZM20.682 31.6a1.89 1.89 0 0 0-.27-1.054 1.837 1.837 0 0 0-.803-.72 1.793 1.793 0 0 0-2.014.354 1.895 1.895 0 0 0-.43 2.037c.136.344.37.64.67.848a1.8 1.8 0 0 0 1.022.32 1.675 1.675 0 0 0 1.3-.48 1.742 1.742 0 0 0 .525-1.305ZM24.182 31.751a4.13 4.13 0 0 1 .67-2.265 4.012 4.012 0 0 1 1.79-1.503 3.922 3.922 0 0 1 2.309-.235 3.971 3.971 0 0 1 2.047 1.113 4.1 4.1 0 0 1 1.095 2.085c.155.79.076 1.61-.226 2.354a4.058 4.058 0 0 1-1.47 1.83 3.939 3.939 0 0 1-2.22.686 3.882 3.882 0 0 1-1.534-.297 3.944 3.944 0 0 1-1.302-.88 4.033 4.033 0 0 1-.865-1.324c-.199-.496-.299-1.028-.294-1.564Zm5.73 0a1.793 1.793 0 0 0-.314-.97 1.741 1.741 0 0 0-.788-.632 1.705 1.705 0 0 0-1.876.413 1.801 1.801 0 0 0-.356 1.923c.132.32.355.594.64.786.284.193.617.295.959.295a1.663 1.663 0 0 0 1.247-.525 1.731 1.731 0 0 0 .473-1.29h.015ZM33.21 25.848c0-.275.08-.543.23-.771.15-.229.362-.407.61-.512a1.336 1.336 0 0 1 1.484.301 1.414 1.414 0 0 1 .295 1.513c-.103.254-.277.47-.5.623a1.343 1.343 0 0 1-.757.234 1.355 1.355 0 0 1-.96-.409 1.41 1.41 0 0 1-.402-.98Zm.232 2.06h2.244v7.687h-2.244v-7.688ZM45.47 31.751a3.933 3.933 0 0 1-.211 1.497c-.167.48-.425.921-.759 1.3a3.791 3.791 0 0 1-1.19.901c-.45.218-.94.343-1.438.367a2.816 2.816 0 0 1-1.224-.215 2.865 2.865 0 0 1-1.02-.723v3.814h-2.244V27.907h2.244v.725a2.865 2.865 0 0 1 1.02-.724 2.816 2.816 0 0 1 1.224-.215c.498.025.986.15 1.436.367.451.217.855.523 1.19.9a3.928 3.928 0 0 1 .972 2.79Zm-2.245 0a1.855 1.855 0 0 0-.32-1 1.801 1.801 0 0 0-.808-.653 1.763 1.763 0 0 0-1.935.405 1.842 1.842 0 0 0-.49.926c-.07.35-.038.715.092 1.048.13.332.353.618.642.823.288.205.628.318.98.327a1.691 1.691 0 0 0 1.33-.515 1.76 1.76 0 0 0 .495-1.36h.014ZM52.455 33.292c0 1.77-1.495 2.524-3.141 2.524a3.254 3.254 0 0 1-1.894-.409 3.343 3.343 0 0 1-1.345-1.421l1.96-1.136c.08.277.25.518.483.683.232.166.513.245.796.224.546 0 .815-.175.815-.48 0-.847-3.74-.397-3.74-3.051 0-1.678 1.392-2.525 2.992-2.525a3.26 3.26 0 0 1 1.694.415c.518.29.95.715 1.253 1.233L50.361 30.4a1.131 1.131 0 0 0-.41-.493 1.098 1.098 0 0 0-.607-.186c-.389 0-.628.153-.628.435.03.877 3.74.29 3.74 3.135ZM60.713 27.907v7.688h-2.244v-.717c-.261.319-.592.57-.967.733a2.537 2.537 0 0 1-1.187.206c-1.496 0-2.82-1.106-2.82-3.189v-4.72h2.244v4.385a1.29 1.29 0 0 0 .352 1.026 1.237 1.237 0 0 0 1.002.37c.822 0 1.398-.489 1.398-1.58v-4.202h2.222ZM73.683 30.882v4.713h-2.244V31.08c0-.763-.367-1.266-1.085-1.266s-1.182.541-1.182 1.449v4.332H66.93V31.08c0-.763-.36-1.266-1.085-1.266s-1.174.541-1.174 1.449v4.332h-2.244v-7.688h2.244v.71c.234-.314.542-.562.894-.724.353-.16.74-.23 1.125-.2.387-.019.773.065 1.119.242.345.178.64.444.856.773.25-.344.582-.617.964-.794a2.44 2.44 0 0 1 1.22-.22c1.705 0 2.835 1.266 2.835 3.188ZM75.597 27.861c.926 0 1.676-.764 1.676-1.708s-.75-1.708-1.675-1.708c-.926 0-1.676.764-1.676 1.708s.75 1.709 1.675 1.709ZM27.728 18.556c4.333 0 7.846-3.582 7.846-8 0-4.42-3.513-8.001-7.846-8.001-4.334 0-7.846 3.582-7.846 8 0 4.42 3.512 8.001 7.846 8.001ZM45.267 18.556c4.334 0 7.846-3.582 7.846-8 0-4.42-3.512-8.001-7.846-8.001-4.333 0-7.846 3.582-7.846 8 0 4.42 3.513 8.001 7.846 8.001ZM18.034 2.555H2.35v15.994h15.685V2.555Z" fill="#fff"/></svg>